<?xml version="1.0" encoding="UTF-8" standalone="no"?>
<!-- Created with Inkscape (http://www.inkscape.org/) -->

<svg
   xmlns:dc="http://purl.org/dc/elements/1.1/"
   xmlns:cc="http://creativecommons.org/ns#"
   xmlns:rdf="http://www.w3.org/1999/02/22-rdf-syntax-ns#"
   xmlns:svg="http://www.w3.org/2000/svg"
   xmlns="http://www.w3.org/2000/svg"
   xmlns:sodipodi="http://sodipodi.sourceforge.net/DTD/sodipodi-0.dtd"
   xmlns:inkscape="http://www.inkscape.org/namespaces/inkscape"
   version="1.1"
   id="svg2"
   xml:space="preserve"
   width="60.630863"
   height="69.927116"
   viewBox="0 0 60.630864 69.927116"
   sodipodi:docname="coughing_person.svg"
   inkscape:version="0.92.4 (5da689c313, 2019-01-14)"><metadata
     id="metadata8"><rdf:RDF><cc:Work
         rdf:about=""><dc:format>image/svg+xml</dc:format><dc:type
           rdf:resource="http://purl.org/dc/dcmitype/StillImage" /><dc:title /></cc:Work></rdf:RDF></metadata><defs
     id="defs6"><clipPath
       clipPathUnits="userSpaceOnUse"
       id="clipPath20"><path
         d="M 0,0 H 750 V 500 H 0 Z"
         id="path18"
         inkscape:connector-curvature="0" /></clipPath><clipPath
       clipPathUnits="userSpaceOnUse"
       id="clipPath28"><path
         d="M -18.8179,434.851 H 91.1156 V 324.924 H -18.8179 Z"
         id="path26"
         inkscape:connector-curvature="0" /></clipPath><clipPath
       clipPathUnits="userSpaceOnUse"
       id="clipPath48"><path
         d="m 263.467,412.192 h 52.03 v -52.03 h -52.03 z"
         id="path46"
         inkscape:connector-curvature="0" /></clipPath><clipPath
       clipPathUnits="userSpaceOnUse"
       id="clipPath64"><path
         d="M 66.9308,333.783 H 259.578 V 131.576 H 66.9308 Z"
         id="path62"
         inkscape:connector-curvature="0" /></clipPath><clipPath
       clipPathUnits="userSpaceOnUse"
       id="clipPath84"><path
         d="m 176.983,437.136 h 31.404 v -30.511 h -31.404 z"
         id="path82"
         inkscape:connector-curvature="0" /></clipPath><clipPath
       clipPathUnits="userSpaceOnUse"
       id="clipPath108"><path
         d="M 343.324,420.772 H 482.687 V 291.182 H 343.324 Z"
         id="path106"
         inkscape:connector-curvature="0" /></clipPath><clipPath
       clipPathUnits="userSpaceOnUse"
       id="clipPath124"><path
         d="M 330.118,279.8 H 440.051 V 169.872 H 330.118 Z"
         id="path122"
         inkscape:connector-curvature="0" /></clipPath><clipPath
       clipPathUnits="userSpaceOnUse"
       id="clipPath144"><path
         d="m 328.244,154.468 h 24.759 v -24.056 h -24.759 z"
         id="path142"
         inkscape:connector-curvature="0" /></clipPath><clipPath
       clipPathUnits="userSpaceOnUse"
       id="clipPath160"><path
         d="m 612.403,254.494 h 52.03 v -52.03 h -52.03 z"
         id="path158"
         inkscape:connector-curvature="0" /></clipPath><clipPath
       clipPathUnits="userSpaceOnUse"
       id="clipPath176"><path
         d="M 415.867,178.731 H 608.514 V -23.4754 H 415.867 Z"
         id="path174"
         inkscape:connector-curvature="0" /></clipPath><clipPath
       clipPathUnits="userSpaceOnUse"
       id="clipPath192"><path
         d="m 421.077,138.851 h 37.514 v -37.538 h -37.514 z"
         id="path190"
         inkscape:connector-curvature="0" /></clipPath><clipPath
       clipPathUnits="userSpaceOnUse"
       id="clipPath212"><path
         d="m 470.543,225.606 h 24.76 v -24.057 h -24.76 z"
         id="path210"
         inkscape:connector-curvature="0" /></clipPath><clipPath
       clipPathUnits="userSpaceOnUse"
       id="clipPath228"><path
         d="m 530.533,238.434 h 24.759 v -24.056 h -24.759 z"
         id="path226"
         inkscape:connector-curvature="0" /></clipPath><clipPath
       clipPathUnits="userSpaceOnUse"
       id="clipPath244"><path
         d="M 692.259,263.074 H 831.623 V 133.484 H 692.259 Z"
         id="path242"
         inkscape:connector-curvature="0" /></clipPath><clipPath
       clipPathUnits="userSpaceOnUse"
       id="clipPath266"><path
         d="M 0,500 H 750 V 0 H 0 Z"
         id="path264"
         inkscape:connector-curvature="0" /></clipPath><clipPath
       clipPathUnits="userSpaceOnUse"
       id="clipPath336"><path
         d="M 0,500 H 750 V 0 H 0 Z"
         id="path334"
         inkscape:connector-curvature="0" /></clipPath><clipPath
       clipPathUnits="userSpaceOnUse"
       id="clipPath492"><path
         d="m 262.57,323.771 h 19.85 v -11.263 h -19.85 z"
         id="path490"
         inkscape:connector-curvature="0" /></clipPath><clipPath
       clipPathUnits="userSpaceOnUse"
       id="clipPath760"><path
         d="M 0,500 H 750 V 0 H 0 Z"
         id="path758"
         inkscape:connector-curvature="0" /></clipPath><clipPath
       clipPathUnits="userSpaceOnUse"
       id="clipPath780"><path
         d="M 0,500 H 750 V 0 H 0 Z"
         id="path778"
         inkscape:connector-curvature="0" /></clipPath><clipPath
       clipPathUnits="userSpaceOnUse"
       id="clipPath800"><path
         d="M 0,500 H 750 V 0 H 0 Z"
         id="path798"
         inkscape:connector-curvature="0" /></clipPath><clipPath
       clipPathUnits="userSpaceOnUse"
       id="clipPath820"><path
         d="M 0,500 H 750 V 0 H 0 Z"
         id="path818"
         inkscape:connector-curvature="0" /></clipPath><clipPath
       clipPathUnits="userSpaceOnUse"
       id="clipPath840"><path
         d="M 0,500 H 750 V 0 H 0 Z"
         id="path838"
         inkscape:connector-curvature="0" /></clipPath><clipPath
       clipPathUnits="userSpaceOnUse"
       id="clipPath1414"><path
         d="M 0,500 H 750 V 0 H 0 Z"
         id="path1412"
         inkscape:connector-curvature="0" /></clipPath><clipPath
       clipPathUnits="userSpaceOnUse"
       id="clipPath1496"><path
         d="M 0,500 H 750 V 0 H 0 Z"
         id="path1494"
         inkscape:connector-curvature="0" /></clipPath><clipPath
       clipPathUnits="userSpaceOnUse"
       id="clipPath1574"><path
         d="M 0,500 H 750 V 0 H 0 Z"
         id="path1572"
         inkscape:connector-curvature="0" /></clipPath><clipPath
       clipPathUnits="userSpaceOnUse"
       id="clipPath1592"><path
         d="M 0,500 H 750 V 0 H 0 Z"
         id="path1590"
         inkscape:connector-curvature="0" /></clipPath><clipPath
       clipPathUnits="userSpaceOnUse"
       id="clipPath1698"><path
         d="M 0,500 H 750 V 0 H 0 Z"
         id="path1696"
         inkscape:connector-curvature="0" /></clipPath><clipPath
       clipPathUnits="userSpaceOnUse"
       id="clipPath1810"><path
         d="M 0,500 H 750 V 0 H 0 Z"
         id="path1808"
         inkscape:connector-curvature="0" /></clipPath><clipPath
       clipPathUnits="userSpaceOnUse"
       id="clipPath1910"><path
         d="m 516.607,301.277 h 9.677 v -5.137 h -9.677 z"
         id="path1908"
         inkscape:connector-curvature="0" /></clipPath></defs><sodipodi:namedview
     pagecolor="#ffffff"
     bordercolor="#666666"
     borderopacity="1"
     objecttolerance="10"
     gridtolerance="10"
     guidetolerance="10"
     inkscape:pageopacity="0"
     inkscape:pageshadow="2"
     inkscape:window-width="1920"
     inkscape:window-height="1025"
     id="namedview4"
     showgrid="false"
     fit-margin-top="0"
     fit-margin-left="0"
     fit-margin-right="0"
     fit-margin-bottom="0"
     inkscape:zoom="5.664"
     inkscape:cx="15.609879"
     inkscape:cy="15.270783"
     inkscape:window-x="0"
     inkscape:window-y="27"
     inkscape:window-maximized="1"
     inkscape:current-layer="g3617" /><g
     id="g10"
     inkscape:groupmode="layer"
     inkscape:label="3452529"
     transform="matrix(1.3333333,0,0,-1.3333333,-777.00513,814.56176)">














<g
   clip-path="url(#clipPath1810)"
   id="g1806"
   transform="translate(107.7192,238.1133)"><g
     id="g3617"
     transform="translate(-14.232023,51.684715)"><g
       id="g1812"
       transform="translate(523.6445,314.4902)"><path
         d="m 0,0 c -5.096,-6.785 -11.945,-12.234 -19.701,-15.667 l -0.059,-0.047 c -0.287,0.363 -0.598,0.715 -0.922,1.055 -0.452,0.486 -0.957,0.955 -1.578,1.177 -1.15,0.415 -2.511,-0.155 -3.207,-1.159 -0.697,-1.003 -0.796,-2.34 -0.471,-3.519 0.33,-1.178 1.034,-2.216 1.838,-3.135 0.494,-0.569 1.045,-1.114 1.714,-1.465 0.652,-0.34 1.444,-0.486 2.135,-0.244 -0.295,-3.701 -0.749,-7.391 -1.354,-11.057 0,-0.023 -0.006,-0.046 -0.012,-0.07 -0.939,-0.136 -1.7,-1.087 -1.758,-2.066 -0.063,-1.091 0.56,-2.122 1.364,-2.849 -1.372,-0.471 -2.309,-1.979 -2.12,-3.415 0.048,-0.34 0.148,-0.669 0.306,-0.974 -0.997,0.052 -1.971,0.256 -2.851,0.725 -1.707,0.901 -2.871,3.099 -2.022,4.842 -2.617,1.2 -5.188,3.232 -5.618,6.076 -0.326,2.181 0.687,4.334 1.876,6.189 1.188,1.854 2.599,3.621 3.237,5.733 0.742,2.47 0.335,5.12 0.432,7.701 0.234,6.422 3.858,12.619 9.337,15.973 5.481,3.355 12.653,3.755 18.473,1.045 C 0.529,4.153 1.949,3.257 3.065,2.05 5.479,-0.563 6.209,-4.304 6.383,-7.858 6.551,-11.248 6.302,-14.685 5.344,-17.94 H 5.268 C 5.126,-11.765 3.173,-5.568 0.164,-0.123 Z"
         style="fill:#090e3f;fill-opacity:1;fill-rule:nonzero;stroke:none"
         id="path1814"
         inkscape:connector-curvature="0" /></g><g
       id="g1816"
       transform="translate(522.2432,280.3799)"><path
         d="m 0,0 c -0.364,-0.083 -0.763,-0.018 -1.127,-0.089 0.03,0.041 0.059,0.082 0.088,0.123 C 0.656,0.329 2.186,1.386 3.27,2.736 4.446,4.204 5.16,5.987 5.663,7.8 5.92,8.727 6.13,9.66 6.281,10.604 8.179,8.02 10.058,5.259 10.384,2.087 10.65,-0.446 9.832,-3.081 8.174,-5.023 7.308,-6.045 6.141,-6.896 4.851,-7.179 4.24,-5.919 3.154,-4.899 1.863,-4.361 2.895,-3.709 3.274,-2.208 2.675,-1.146 2.164,-0.238 1.008,0.224 0,0"
         style="fill:#090e3f;fill-opacity:1;fill-rule:nonzero;stroke:none"
         id="path1818"
         inkscape:connector-curvature="0" /></g><g
       id="g1820"
       transform="translate(528.5244,290.9839)"
       style="fill:#9c7248;fill-opacity:1"><path
         d="m 0,0 c -0.151,-0.944 -0.361,-1.877 -0.618,-2.804 -0.503,-1.813 -1.217,-3.596 -2.394,-5.064 -1.084,-1.35 -2.701,-2.53 -4.396,-2.825 0.054,0.07 -0.052,-0.071 0,0 -0.826,-0.188 -1.443,0.227 -2.287,0.35 -3.567,0.53 -6.981,1.781 -10.367,3.021 0.067,-1.49 0.426,-2.973 1.049,-4.339 -2.458,0.103 -4.897,0.441 -7.273,1.054 -0.065,0.012 -0.135,0.029 -0.199,0.053 0.605,3.666 1.059,7.355 1.354,11.056 -0.691,-0.241 -1.483,-0.095 -2.135,0.244 -0.669,0.352 -1.22,0.896 -1.713,1.465 -0.805,0.919 -1.509,1.957 -1.839,3.135 -0.325,1.179 -0.226,2.516 0.471,3.52 0.697,1.003 2.057,1.573 3.207,1.158 0.621,-0.222 1.126,-0.691 1.578,-1.177 0.324,-0.34 0.635,-0.691 0.922,-1.055 l 0.059,0.047 c 7.756,3.433 14.605,8.883 19.701,15.667 l 0.164,-0.123 C -1.707,17.938 0.246,11.741 0.388,5.566 0.437,3.701 0.315,1.842 0,0"
         style="fill:#9c7248;fill-opacity:1;fill-rule:nonzero;stroke:none"
         id="path1822"
         inkscape:connector-curvature="0" /></g><g
       id="g1824"
       transform="translate(527.0937,273.2007)"
       style="fill:#008080;fill-opacity:1"><path
         d="M 0,0 C 0.006,-0.006 0.013,-0.012 0.013,-0.018 0.3,-0.604 0.482,-1.29 0.29,-1.912 0.249,-2.041 0.19,-2.164 0.114,-2.275 c -5.253,-2.1 -11.129,-2.416 -16.823,-2.182 -3.367,0.138 -6.763,0.469 -9.966,1.492 -0.247,0.24 -0.446,0.515 -0.599,0.82 -0.159,0.305 -0.258,0.633 -0.306,0.973 -0.19,1.437 0.748,2.945 2.12,3.416 -0.805,0.726 -1.428,1.757 -1.364,2.848 0.057,0.98 0.819,1.931 1.758,2.067 0.07,0.011 0.14,0.017 0.211,0.017 2.376,-0.613 4.815,-0.95 7.273,-1.053 3.859,-0.173 7.77,0.218 11.604,0.967 0.365,0.071 0.763,0.007 1.127,0.089 1.008,0.224 2.164,-0.238 2.675,-1.146 0.6,-1.061 0.22,-2.563 -0.811,-3.215 C -1.696,2.28 -0.61,1.26 0,0"
         style="fill:#008080;fill-opacity:1;fill-rule:nonzero;stroke:none"
         id="path1826"
         inkscape:connector-curvature="0" /></g><g
       id="g1828"
       transform="translate(519.1885,290.8394)"><path
         d="M 0,0 V 0 C 0.479,0.798 1.036,1.596 1.916,1.85 3.152,2.191 4.514,1.336 4.984,0.146 5.461,-1.05 5.163,-2.44 4.49,-3.526 4.32,-3.796 4.133,-4.054 3.91,-4.283 3.528,-4.031 3.376,-3.533 3.182,-3.105 2.57,-1.733 1.232,-0.708 -0.246,-0.463 -0.17,-0.305 -0.088,-0.146 0,0"
         style="fill:#252849;fill-opacity:1;fill-rule:nonzero;stroke:none"
         id="path1830"
         inkscape:connector-curvature="0" /></g><g
       id="g1832"
       transform="translate(522.3701,287.7344)"><path
         d="M 0,0 C 0.194,-0.428 0.347,-0.926 0.729,-1.178 0.295,-1.647 -0.238,-2.023 -0.854,-2.2 c -0.915,-0.259 -2.011,-0.002 -2.57,0.771 -0.287,0.393 -0.417,0.88 -0.476,1.367 -0.101,0.92 0.074,1.87 0.472,2.704 C -1.949,2.396 -0.611,1.372 0,0"
         style="fill:#a02758;fill-opacity:1;fill-rule:nonzero;stroke:none"
         id="path1834"
         inkscape:connector-curvature="0" /></g><g
       id="g1836"
       transform="translate(521.1162,280.291)"
       style="fill:#ac7248;fill-opacity:1"><path
         d="m 0,0 c -0.028,-0.041 0.03,0.041 0,0 -3.834,-0.749 -7.745,-1.14 -11.604,-0.968 -0.624,1.366 -0.983,2.849 -1.049,4.339 C -9.268,2.131 -5.854,0.879 -2.287,0.35 -1.442,0.227 0,0 0,0 -0.052,-0.071 0.054,0.07 0,0"
         style="fill:#ac7248;fill-opacity:1;fill-rule:nonzero;stroke:none"
         id="path1838"
         inkscape:connector-curvature="0" /></g><g
       id="g1840"
       transform="translate(515.3984,302.832)"><path
         d="m 0,0 c -0.463,0.346 -0.925,0.692 -1.387,1.038 -0.247,0.185 -0.666,0.047 -0.801,-0.211 -0.164,-0.308 -0.053,-0.605 0.21,-0.802 0.385,-0.289 0.771,-0.577 1.156,-0.865 0.151,-0.114 0.302,-0.227 0.454,-0.34 -0.686,-0.511 -1.388,-1 -2.08,-1.501 -0.248,-0.179 -0.393,-0.519 -0.209,-0.802 0.158,-0.246 0.536,-0.402 0.802,-0.21 0.471,0.34 0.942,0.681 1.413,1.021 l 0.676,0.489 c 0.262,0.189 0.565,0.36 0.695,0.669 C 1.233,-0.79 0.482,-0.361 0,0"
         style="fill:#090e3f;fill-opacity:1;fill-rule:nonzero;stroke:none"
         id="path1842"
         inkscape:connector-curvature="0" /></g><g
       id="g1844"
       transform="translate(527.3584,302.1924)"><path
         d="m 0,0 c -0.359,0.058 -0.719,0.117 -1.078,0.175 -0.119,0.02 -0.238,0.039 -0.357,0.058 0.091,0.154 0.182,0.307 0.273,0.459 0.188,0.317 0.377,0.635 0.565,0.952 0.157,0.264 0.068,0.655 -0.212,0.802 -0.283,0.15 -0.634,0.071 -0.801,-0.211 l -0.654,-1.1 C -2.373,0.952 -2.481,0.769 -2.591,0.585 -2.737,0.337 -2.869,0.105 -2.828,-0.193 c 0.085,-0.627 0.756,-0.652 1.243,-0.731 0.425,-0.069 0.85,-0.138 1.274,-0.207 0.161,-0.027 0.307,-0.026 0.452,0.059 C 0.263,-1 0.378,-0.861 0.41,-0.721 0.475,-0.438 0.323,-0.053 0,0"
         style="fill:#090e3f;fill-opacity:1;fill-rule:nonzero;stroke:none"
         id="path1846"
         inkscape:connector-curvature="0" /></g><g
       id="g1848"
       transform="translate(528.6201,306.5874)"><path
         d="m 0,0 c -0.264,0.394 -0.759,0.625 -1.192,0.778 -0.787,0.279 -1.7,0.256 -2.469,-0.062 -0.502,-0.207 -1.046,-0.524 -1.087,-1.129 -0.019,-0.274 0.083,-0.536 0.291,-0.72 0.253,-0.224 0.574,-0.25 0.894,-0.197 0.232,0.038 0.455,0.121 0.686,0.163 -0.021,-0.003 0.187,0.031 0.113,0.021 -0.036,-0.005 -0.019,-0.003 0.05,0.005 0.042,0.005 0.085,0.009 0.128,0.013 0.128,0.01 0.257,0.014 0.386,0.013 0.265,-0.002 0.477,-0.025 0.676,-0.065 0.253,-0.051 0.499,-0.126 0.739,-0.219 0.286,-0.112 0.656,0.123 0.721,0.41 0.003,0.018 0,0.033 0.002,0.051 C 0.148,-0.671 0.197,-0.293 0,0"
         style="fill:#090e3f;fill-opacity:1;fill-rule:nonzero;stroke:none"
         id="path1850"
         inkscape:connector-curvature="0" /></g><g
       id="g1852"
       transform="translate(512.5703,306.3389)"><path
         d="M 0,0 C 0.263,0.395 0.758,0.626 1.19,0.781 1.976,1.062 2.89,1.041 3.66,0.724 4.162,0.518 4.707,0.202 4.749,-0.402 4.768,-0.677 4.667,-0.939 4.46,-1.124 4.207,-1.348 3.886,-1.375 3.566,-1.323 3.334,-1.284 3.111,-1.203 2.879,-1.16 2.9,-1.164 2.692,-1.13 2.767,-1.141 2.802,-1.145 2.785,-1.143 2.717,-1.135 2.674,-1.13 2.631,-1.126 2.588,-1.123 2.46,-1.113 2.331,-1.108 2.202,-1.11 1.937,-1.113 1.726,-1.136 1.527,-1.177 1.274,-1.228 1.028,-1.303 0.788,-1.397 0.502,-1.509 0.132,-1.275 0.066,-0.988 c -0.004,0.018 0,0.033 -0.003,0.05 C -0.147,-0.671 -0.196,-0.293 0,0"
         style="fill:#090e3f;fill-opacity:1;fill-rule:nonzero;stroke:none"
         id="path1854"
         inkscape:connector-curvature="0" /></g><g
       id="g1856"
       transform="translate(529.5352,294.1543)"
       style="fill:#aa0000"><path
         d="M 0,0 -4.433,-2.628 C -5.082,-3.013 -4.491,-4.026 -3.84,-3.64 l 4.433,2.628 C 1.242,-0.628 0.651,0.386 0,0"
         style="fill:#aa0000;fill-opacity:1;fill-rule:nonzero;stroke:none"
         id="path1858"
         inkscape:connector-curvature="0" /></g><g
       id="g1860"
       transform="translate(529.624,289.4619)"
       style="fill:#aa0000"><path
         d="m 0,0 -3.375,0.056 c -0.307,0.005 -0.601,-0.275 -0.586,-0.588 0.015,-0.322 0.258,-0.58 0.587,-0.585 1.125,-0.019 2.25,-0.037 3.375,-0.056 0.307,-0.005 0.6,0.274 0.586,0.587 C 0.572,-0.264 0.328,-0.006 0,0"
         style="fill:#aa0000;fill-opacity:1;fill-rule:nonzero;stroke:none"
         id="path1862"
         inkscape:connector-curvature="0" /></g><g
       id="g1864"
       transform="translate(527.6768,285.2158)"
       style="fill:#aa0000"><path
         d="M 0,0 C -0.701,0.546 -1.403,1.092 -2.104,1.639 -2.233,1.738 -2.35,1.81 -2.52,1.81 -2.664,1.81 -2.836,1.746 -2.935,1.638 -3.037,1.526 -3.113,1.379 -3.105,1.223 c 0.006,-0.144 0.052,-0.322 0.171,-0.415 0.703,-0.546 1.404,-1.092 2.106,-1.638 0.128,-0.1 0.245,-0.171 0.415,-0.171 0.143,0 0.315,0.064 0.414,0.172 0.103,0.112 0.179,0.259 0.172,0.414 C 0.166,-0.27 0.12,-0.093 0,0"
         style="fill:#aa0000;fill-opacity:1;fill-rule:nonzero;stroke:none"
         id="path1866"
         inkscape:connector-curvature="0" /></g><g
       id="g1868"
       transform="translate(533.1543,292.3159)"
       style="fill:#aa0000"><path
         d="M 0,0 C -0.325,0.257 -0.689,0.417 -1.106,0.446 -1.431,0.469 -1.793,0.369 -2.052,0.173 -2.218,0.048 -2.368,-0.093 -2.467,-0.28 c -0.065,-0.124 -0.1,-0.248 -0.127,-0.377 -0.005,-0.014 -0.014,-0.027 -0.019,-0.042 -0.119,-0.34 -0.062,-0.7 0.09,-1.018 0.138,-0.291 0.41,-0.534 0.686,-0.692 0.284,-0.162 0.593,-0.248 0.918,-0.269 0.661,-0.043 1.331,0.332 1.515,0.993 C 0.764,-1.083 0.481,-0.381 0,0"
         style="fill:#aa0000;fill-opacity:1;fill-rule:nonzero;stroke:none"
         id="path1870"
         inkscape:connector-curvature="0" /></g><g
       id="g1872"
       transform="translate(531.9902,294.6611)"
       style="fill:#aa0000"><path
         d="M 0,0 C -0.755,0 -0.755,-1.174 0.001,-1.173 0.756,-1.172 0.756,0.001 0,0"
         style="fill:#aa0000;fill-opacity:1;fill-rule:nonzero;stroke:none"
         id="path1874"
         inkscape:connector-curvature="0" /></g><g
       id="g1876"
       transform="translate(534.0312,295.1816)"
       style="fill:#aa0000"><path
         d="M 0,0 C -0.028,0.099 -0.078,0.186 -0.151,0.259 L -0.204,0.312 C -0.257,0.369 -0.32,0.409 -0.393,0.432 -0.463,0.469 -0.538,0.486 -0.619,0.482 -0.699,0.486 -0.774,0.469 -0.845,0.432 -0.917,0.408 -0.98,0.368 -1.033,0.311 -1.063,0.271 -1.095,0.231 -1.125,0.192 -1.178,0.1 -1.204,0.001 -1.204,-0.104 l 0.02,-0.156 c 0.029,-0.1 0.079,-0.186 0.152,-0.259 l 0.053,-0.053 c 0.052,-0.057 0.116,-0.097 0.188,-0.121 0.07,-0.036 0.145,-0.053 0.227,-0.05 0.08,-0.003 0.156,0.014 0.225,0.051 0.072,0.024 0.136,0.064 0.189,0.121 0.03,0.04 0.061,0.079 0.091,0.119 0.053,0.092 0.08,0.19 0.08,0.296 C 0.014,-0.104 0.007,-0.052 0,0"
         style="fill:#aa0000;fill-opacity:1;fill-rule:nonzero;stroke:none"
         id="path1878"
         inkscape:connector-curvature="0" /></g><g
       id="g1880"
       transform="translate(534.6885,293.7236)"
       style="fill:#aa0000"><path
         d="M 0,0 C -0.023,0.073 -0.064,0.135 -0.121,0.188 -0.175,0.246 -0.237,0.286 -0.311,0.31 -0.38,0.346 -0.455,0.363 -0.536,0.36 L -0.692,0.339 C -0.791,0.311 -0.878,0.26 -0.951,0.188 c -0.03,-0.04 -0.061,-0.08 -0.091,-0.119 -0.054,-0.091 -0.08,-0.19 -0.08,-0.296 V -0.28 c -0.003,-0.08 0.014,-0.156 0.051,-0.226 0.023,-0.073 0.064,-0.135 0.121,-0.188 0.054,-0.057 0.116,-0.098 0.189,-0.121 0.07,-0.037 0.145,-0.054 0.226,-0.051 0.052,0.007 0.104,0.014 0.156,0.021 0.099,0.029 0.186,0.079 0.259,0.152 l 0.091,0.118 c 0.053,0.092 0.08,0.19 0.08,0.296 v 0.053 C 0.054,-0.145 0.037,-0.07 0,0"
         style="fill:#aa0000;fill-opacity:1;fill-rule:nonzero;stroke:none"
         id="path1882"
         inkscape:connector-curvature="0" /></g><g
       id="g1884"
       transform="translate(532.0107,286.4912)"
       style="fill:#aa0000"><path
         d="m 0,0 c -0.062,0.209 -0.165,0.385 -0.309,0.548 -0.3,0.343 -0.798,0.46 -1.233,0.36 C -1.682,0.875 -1.818,0.8 -1.941,0.71 -2.029,0.683 -2.112,0.643 -2.181,0.575 -2.337,0.42 -2.449,0.224 -2.51,0.013 c -0.063,-0.219 -0.056,-0.43 -0.022,-0.651 0.057,-0.367 0.319,-0.732 0.657,-0.891 0.198,-0.093 0.401,-0.149 0.623,-0.145 0.226,0.004 0.421,0.061 0.623,0.155 0.194,0.091 0.346,0.247 0.47,0.418 0.096,0.132 0.162,0.298 0.185,0.459 C 0.06,-0.424 0.063,-0.215 0,0"
         style="fill:#aa0000;fill-opacity:1;fill-rule:nonzero;stroke:none"
         id="path1886"
         inkscape:connector-curvature="0" /></g><g
       id="g1888"
       transform="translate(532.8408,288.1782)"
       style="fill:#aa0000"><path
         d="M 0,0 C -0.755,-0.001 -0.755,-1.174 0.001,-1.173 0.756,-1.172 0.756,0 0,0"
         style="fill:#aa0000;fill-opacity:1;fill-rule:nonzero;stroke:none"
         id="path1890"
         inkscape:connector-curvature="0" /></g><g
       id="g1892"
       transform="translate(529.207,283.8516)"
       style="fill:#aa0000"><path
         d="M 0,0 C -0.755,-0.001 -0.755,-1.174 0.002,-1.173 0.756,-1.172 0.756,0.001 0,0"
         style="fill:#aa0000;fill-opacity:1;fill-rule:nonzero;stroke:none"
         id="path1894"
         inkscape:connector-curvature="0" /></g><g
       id="g1896"
       transform="translate(531.3691,283.3794)"
       style="fill:#aa0000"><path
         d="M 0,0 C -0.755,-0.001 -0.755,-1.174 0.001,-1.173 0.756,-1.172 0.756,0 0,0"
         style="fill:#aa0000;fill-opacity:1;fill-rule:nonzero;stroke:none"
         id="path1898"
         inkscape:connector-curvature="0" /></g><g
       id="g1900"
       transform="translate(530.0527,282.0073)"
       style="fill:#aa0000"><path
         d="M 0,0 C -0.755,0 -0.755,-1.174 0.001,-1.173 0.756,-1.172 0.756,0.001 0,0"
         style="fill:#aa0000;fill-opacity:1;fill-rule:nonzero;stroke:none"
         id="path1902"
         inkscape:connector-curvature="0" /></g><g
       id="g1904"
       style="fill:#d45500"><g
         id="g1906"
         style="fill:#d45500" /><g
         id="g1918"
         style="fill:#d45500"><g
           clip-path="url(#clipPath1910)"
           id="g1916"
           style="opacity:0.30999804;fill:#d45500"><g
             transform="translate(522.3594,301.2397)"
             id="g1914"
             style="fill:#d45500"><path
               d="m 0,0 c -1.863,-0.213 -4.182,-1.017 -5.401,-2.676 -0.585,-0.795 -0.372,-1.431 0.15,-1.966 0.236,-0.161 0.452,-0.235 0.693,-0.329 1.32,-0.51 2.574,0.628 3.853,1.104 1.307,0.487 2.401,-0.242 3.661,0.299 0.493,0.212 0.841,0.746 0.93,1.222 C 4.272,-0.28 1.632,0.187 0,0"
               style="fill:#d45500;fill-opacity:1;fill-rule:nonzero;stroke:none"
               id="path1912"
               inkscape:connector-curvature="0" /></g></g></g></g><g
       id="g1920"
       transform="translate(520.9355,303.1475)"
       style="fill:#a05a2c"><path
         d="M 0,0 C -0.328,-1.219 -0.379,-2.48 -0.155,-3.723 0.025,-4.727 0.39,-6.177 1.513,-6.502 2.099,-6.671 2.625,-6.394 3.202,-6.436 3.589,-6.463 4.01,-6.729 3.973,-7.167 3.936,-7.6 3.339,-7.851 2.983,-7.979 2.596,-8.119 2.042,-8.251 1.684,-7.964 1.418,-7.751 1.06,-7.709 0.8,-7.964 0.579,-8.18 0.537,-8.637 0.8,-8.848 1.82,-9.667 3.206,-9.419 4.243,-8.737 4.817,-8.36 5.228,-7.819 5.225,-7.108 5.222,-6.469 4.87,-5.884 4.344,-5.536 3.781,-5.163 3.152,-5.153 2.511,-5.257 2.267,-5.297 1.955,-5.4 1.734,-5.237 1.551,-5.101 1.452,-4.817 1.377,-4.61 0.876,-3.231 0.825,-1.747 1.205,-0.332 1.414,0.446 0.209,0.777 0,0"
         style="fill:#a05a2c;fill-opacity:1;fill-rule:nonzero;stroke:none"
         id="path1922"
         inkscape:connector-curvature="0" /></g><g
       id="g1924"
       transform="translate(500.1465,297.5278)"
       style="fill:#c87137"><path
         d="M 0,0 C 0.184,0.165 0.343,0.31 0.523,0.429 0.6,0.48 0.739,0.564 0.793,0.588 0.774,0.58 0.895,0.625 0.918,0.632 0.931,0.636 1.146,0.679 1.003,0.663 1.051,0.668 1.099,0.667 1.147,0.668 1.198,0.668 1.272,0.653 1.183,0.67 1.229,0.661 1.276,0.648 1.322,0.635 1.369,0.622 1.437,0.583 1.359,0.625 1.407,0.598 1.459,0.572 1.503,0.538 1.432,0.593 1.492,0.544 1.519,0.507 1.542,0.481 1.543,0.48 1.52,0.507 1.492,0.541 1.496,0.532 1.53,0.48 1.523,0.497 1.518,0.513 1.511,0.53 1.523,0.495 1.533,0.458 1.54,0.422 1.594,0.625 1.647,0.827 1.701,1.03 0.741,0.156 -0.544,-0.753 -0.457,-2.224 c 0.041,-0.701 0.429,-1.432 1.158,-1.61 0.709,-0.173 1.518,0.385 1.477,1.146 -0.018,0.337 -0.275,0.625 -0.625,0.625 -0.324,0 -0.643,-0.286 -0.625,-0.625 0.005,-0.085 -0.014,-0.031 0.009,0.003 0.007,0.011 0.056,0.135 0.035,0.069 -0.013,-0.039 0.033,0.01 -0.008,-0.004 -0.073,-0.024 0.069,-0.008 -0.009,-10e-4 -0.083,0.007 0.062,-0.008 0.078,-0.008 -0.025,0 -0.096,0.014 -0.027,0.002 -0.044,0.008 -0.087,0.061 -0.107,0.087 -0.047,0.064 -0.1,0.199 -0.106,0.316 -0.012,0.203 0.011,0.337 0.092,0.555 0.272,0.736 1.097,1.267 1.7,1.815 0.168,0.153 0.209,0.396 0.16,0.608 C 2.578,1.484 1.834,1.921 1.118,1.918 0.321,1.915 -0.321,1.388 -0.884,0.884 -1.135,0.659 -1.113,0.229 -0.884,0 -0.634,-0.25 -0.252,-0.226 0,0"
         style="fill:#c87137;fill-opacity:1;fill-rule:nonzero;stroke:none"
         id="path1926"
         inkscape:connector-curvature="0" /></g></g></g>

</g></svg>