<?xml version="1.0" encoding="UTF-8" standalone="no"?>
<!-- Created with Inkscape (http://www.inkscape.org/) -->

<svg
   xmlns:dc="http://purl.org/dc/elements/1.1/"
   xmlns:cc="http://creativecommons.org/ns#"
   xmlns:rdf="http://www.w3.org/1999/02/22-rdf-syntax-ns#"
   xmlns:svg="http://www.w3.org/2000/svg"
   xmlns="http://www.w3.org/2000/svg"
   xmlns:sodipodi="http://sodipodi.sourceforge.net/DTD/sodipodi-0.dtd"
   xmlns:inkscape="http://www.inkscape.org/namespaces/inkscape"
   version="1.1"
   id="svg2"
   xml:space="preserve"
   width="603.62976"
   height="571.30841"
   viewBox="0 0 603.62976 571.30841"
   sodipodi:docname="3634670.ai"
   inkscape:version="0.92.4 (5da689c313, 2019-01-14)"><metadata
     id="metadata8"><rdf:RDF><cc:Work
         rdf:about=""><dc:format>image/svg+xml</dc:format><dc:type
           rdf:resource="http://purl.org/dc/dcmitype/StillImage" /><dc:title></dc:title></cc:Work></rdf:RDF></metadata><defs
     id="defs6"><clipPath
       clipPathUnits="userSpaceOnUse"
       id="clipPath28"><path
         d="M 0,500 H 500 V 0 H 0 Z"
         id="path26"
         inkscape:connector-curvature="0" /></clipPath><clipPath
       clipPathUnits="userSpaceOnUse"
       id="clipPath48"><path
         d="M 108.053,166.199 H 369.609 V 99.9081 H 108.053 Z"
         id="path46"
         inkscape:connector-curvature="0" /></clipPath><clipPath
       clipPathUnits="userSpaceOnUse"
       id="clipPath64"><path
         d="M 99.3149,174.09 H 208.509 V 86.8092 H 99.3149 Z"
         id="path62"
         inkscape:connector-curvature="0" /></clipPath><clipPath
       clipPathUnits="userSpaceOnUse"
       id="clipPath80"><path
         d="m 129.222,165.64 h 21.519 v -12.019 h -21.519 z"
         id="path78"
         inkscape:connector-curvature="0" /></clipPath><clipPath
       clipPathUnits="userSpaceOnUse"
       id="clipPath96"><path
         d="m 108.951,143.858 h 25.032 v -18.28 h -25.032 z"
         id="path94"
         inkscape:connector-curvature="0" /></clipPath><clipPath
       clipPathUnits="userSpaceOnUse"
       id="clipPath112"><path
         d="m 183.27,142.766 h 22.246 V 119.18 H 183.27 Z"
         id="path110"
         inkscape:connector-curvature="0" /></clipPath><clipPath
       clipPathUnits="userSpaceOnUse"
       id="clipPath132"><path
         d="m 155.169,145.602 h 44.594 v -25.695 h -44.594 z"
         id="path130"
         inkscape:connector-curvature="0" /></clipPath><clipPath
       clipPathUnits="userSpaceOnUse"
       id="clipPath136"><path
         d="m 155.169,145.602 h 11.872 v -14.724 h -11.872 z"
         id="path134"
         inkscape:connector-curvature="0" /></clipPath><clipPath
       clipPathUnits="userSpaceOnUse"
       id="clipPath140"><path
         d="m 167.819,142.574 h 11.034 v -15.353 h -11.034 z"
         id="path138"
         inkscape:connector-curvature="0" /></clipPath><clipPath
       clipPathUnits="userSpaceOnUse"
       id="clipPath144"><path
         d="m 177.031,138.278 h 10.002 v -15.234 h -10.002 z"
         id="path142"
         inkscape:connector-curvature="0" /></clipPath><clipPath
       clipPathUnits="userSpaceOnUse"
       id="clipPath148"><path
         d="m 187.895,134.439 h 11.868 v -14.532 h -11.868 z"
         id="path146"
         inkscape:connector-curvature="0" /></clipPath><clipPath
       clipPathUnits="userSpaceOnUse"
       id="clipPath208"><path
         d="m 137.66,146.693 h 73.33 v -44.006 h -73.33 z"
         id="path206"
         inkscape:connector-curvature="0" /></clipPath><clipPath
       clipPathUnits="userSpaceOnUse"
       id="clipPath224"><path
         d="m 161.606,144.402 h 78.602 V 79.1332 h -78.602 z"
         id="path222"
         inkscape:connector-curvature="0" /></clipPath><clipPath
       clipPathUnits="userSpaceOnUse"
       id="clipPath240"><path
         d="m 189.598,138.395 h 17.235 v -6.604 h -17.235 z"
         id="path238"
         inkscape:connector-curvature="0" /></clipPath><clipPath
       clipPathUnits="userSpaceOnUse"
       id="clipPath256"><path
         d="m 168.369,127.16 h 20.918 v -10.79 h -20.918 z"
         id="path254"
         inkscape:connector-curvature="0" /></clipPath><clipPath
       clipPathUnits="userSpaceOnUse"
       id="clipPath272"><path
         d="m 225.083,111.351 h 12.889 V 89.9343 h -12.889 z"
         id="path270"
         inkscape:connector-curvature="0" /></clipPath><clipPath
       clipPathUnits="userSpaceOnUse"
       id="clipPath296"><path
         d="M 341.936,300.809 H 375.96 V 257.132 H 341.936 Z"
         id="path294"
         inkscape:connector-curvature="0" /></clipPath><clipPath
       clipPathUnits="userSpaceOnUse"
       id="clipPath328"><path
         d="m 326.985,338.329 h 13.707 v -21.056 h -13.707 z"
         id="path326"
         inkscape:connector-curvature="0" /></clipPath><clipPath
       clipPathUnits="userSpaceOnUse"
       id="clipPath344"><path
         d="m 336.268,317.597 h 22.737 v -11.843 h -22.737 z"
         id="path342"
         inkscape:connector-curvature="0" /></clipPath><clipPath
       clipPathUnits="userSpaceOnUse"
       id="clipPath372"><path
         d="m 335.401,269.248 h 4.803 v -27.471 h -4.803 z"
         id="path370"
         inkscape:connector-curvature="0" /></clipPath><clipPath
       clipPathUnits="userSpaceOnUse"
       id="clipPath388"><path
         d="m 349.422,263.495 h 48.496 v -28.317 h -48.496 z"
         id="path386"
         inkscape:connector-curvature="0" /></clipPath><clipPath
       clipPathUnits="userSpaceOnUse"
       id="clipPath408"><path
         d="m 382.896,199.221 h 7.589 V 90.9721 h -7.589 z"
         id="path406"
         inkscape:connector-curvature="0" /></clipPath><clipPath
       clipPathUnits="userSpaceOnUse"
       id="clipPath436"><path
         d="M 343.778,412.224 H 360.24 V 379.846 H 343.778 Z"
         id="path434"
         inkscape:connector-curvature="0" /></clipPath><clipPath
       clipPathUnits="userSpaceOnUse"
       id="clipPath452"><path
         d="m 361.501,405.042 h 26.861 v -68.02 h -26.861 z"
         id="path450"
         inkscape:connector-curvature="0" /></clipPath><clipPath
       clipPathUnits="userSpaceOnUse"
       id="clipPath468"><path
         d="m 372.534,403.491 h 31.055 v -64.288 h -31.055 z"
         id="path466"
         inkscape:connector-curvature="0" /></clipPath><clipPath
       clipPathUnits="userSpaceOnUse"
       id="clipPath484"><path
         d="m 401.728,393.185 h 15.434 v -61.45 h -15.434 z"
         id="path482"
         inkscape:connector-curvature="0" /></clipPath><clipPath
       clipPathUnits="userSpaceOnUse"
       id="clipPath500"><path
         d="m 417.282,374.486 h 9.04 v -41.241 h -9.04 z"
         id="path498"
         inkscape:connector-curvature="0" /></clipPath><clipPath
       clipPathUnits="userSpaceOnUse"
       id="clipPath516"><path
         d="m 318.93,406.509 h 18.617 V 383.507 H 318.93 Z"
         id="path514"
         inkscape:connector-curvature="0" /></clipPath><clipPath
       clipPathUnits="userSpaceOnUse"
       id="clipPath532"><path
         d="M 304.716,402.467 H 322.84 V 362.728 H 304.716 Z"
         id="path530"
         inkscape:connector-curvature="0" /></clipPath><clipPath
       clipPathUnits="userSpaceOnUse"
       id="clipPath548"><path
         d="m 302.626,355.175 h 5.866 v -20.969 h -5.866 z"
         id="path546"
         inkscape:connector-curvature="0" /></clipPath><clipPath
       clipPathUnits="userSpaceOnUse"
       id="clipPath564"><path
         d="m 342.603,420.654 h 22.334 v -7.465 h -22.334 z"
         id="path562"
         inkscape:connector-curvature="0" /></clipPath><clipPath
       clipPathUnits="userSpaceOnUse"
       id="clipPath580"><path
         d="m 373.61,417.587 h 23.866 v -7.872 H 373.61 Z"
         id="path578"
         inkscape:connector-curvature="0" /></clipPath><clipPath
       clipPathUnits="userSpaceOnUse"
       id="clipPath596"><path
         d="m 390.304,406.79 h 25.73 v -17.961 h -25.73 z"
         id="path594"
         inkscape:connector-curvature="0" /></clipPath><clipPath
       clipPathUnits="userSpaceOnUse"
       id="clipPath616"><path
         d="m 16.8049,207.643 h 27.6 V 77.6033 h -27.6 z"
         id="path614"
         inkscape:connector-curvature="0" /></clipPath><clipPath
       clipPathUnits="userSpaceOnUse"
       id="clipPath636"><path
         d="m 69.216,174.219 h 4.6185 V 154.928 H 69.216 Z"
         id="path634"
         inkscape:connector-curvature="0" /></clipPath><clipPath
       clipPathUnits="userSpaceOnUse"
       id="clipPath652"><path
         d="m 78.4725,162.999 h 4.8979 V 132.61 h -4.8979 z"
         id="path650"
         inkscape:connector-curvature="0" /></clipPath><clipPath
       clipPathUnits="userSpaceOnUse"
       id="clipPath668"><path
         d="m 70.2358,141.809 h 6.2737 v -22.694 h -6.2737 z"
         id="path666"
         inkscape:connector-curvature="0" /></clipPath><clipPath
       clipPathUnits="userSpaceOnUse"
       id="clipPath684"><path
         d="m 79.8932,120.965 h 6.344 V 98.0824 h -6.344 z"
         id="path682"
         inkscape:connector-curvature="0" /></clipPath><clipPath
       clipPathUnits="userSpaceOnUse"
       id="clipPath700"><path
         d="m 62.3976,96.2948 h 7.331 v -37.389 h -7.331 z"
         id="path698"
         inkscape:connector-curvature="0" /></clipPath><clipPath
       clipPathUnits="userSpaceOnUse"
       id="clipPath716"><path
         d="m 71.4421,86.3947 h 3.4601 V 65.6393 h -3.4601 z"
         id="path714"
         inkscape:connector-curvature="0" /></clipPath><clipPath
       clipPathUnits="userSpaceOnUse"
       id="clipPath732"><path
         d="m 77.4605,79.0743 h 4.4707 V 58.1732 h -4.4707 z"
         id="path730"
         inkscape:connector-curvature="0" /></clipPath><clipPath
       clipPathUnits="userSpaceOnUse"
       id="clipPath748"><path
         d="m 73.1036,110.461 h 4.0961 V 97.2819 h -4.0961 z"
         id="path746"
         inkscape:connector-curvature="0" /></clipPath><clipPath
       clipPathUnits="userSpaceOnUse"
       id="clipPath764"><path
         d="m 73.1571,168.533 h 4.4472 v -19.071 h -4.4472 z"
         id="path762"
         inkscape:connector-curvature="0" /></clipPath><clipPath
       clipPathUnits="userSpaceOnUse"
       id="clipPath780"><path
         d="m 78.5106,127.737 h 2.187 v -18.844 h -2.187 z"
         id="path778"
         inkscape:connector-curvature="0" /></clipPath><clipPath
       clipPathUnits="userSpaceOnUse"
       id="clipPath796"><path
         d="m 67.464,148.666 h 3.0122 V 137.964 H 67.464 Z"
         id="path794"
         inkscape:connector-curvature="0" /></clipPath><clipPath
       clipPathUnits="userSpaceOnUse"
       id="clipPath820"><path
         d="M 0,54.3246 H 244.807 V -0.0507965 H 0 Z"
         id="path818"
         inkscape:connector-curvature="0" /></clipPath><clipPath
       clipPathUnits="userSpaceOnUse"
       id="clipPath840"><path
         d="M 23.8429,66.2309 H 250.319 v -6.704 H 23.8429 Z"
         id="path838"
         inkscape:connector-curvature="0" /></clipPath><clipPath
       clipPathUnits="userSpaceOnUse"
       id="clipPath870"><path
         d="M 21.3241,103.553 H 34.1445 V 83.9214 H 21.3241 Z"
         id="path868"
         inkscape:connector-curvature="0" /></clipPath><clipPath
       clipPathUnits="userSpaceOnUse"
       id="clipPath892"><path
         d="M 35.6844,105.118 H 48.5048 V 94.222 H 35.6844 Z"
         id="path890"
         inkscape:connector-curvature="0" /></clipPath><clipPath
       clipPathUnits="userSpaceOnUse"
       id="clipPath912"><path
         d="M 21.3241,105.118 H 34.1445 V 94.222 H 21.3241 Z"
         id="path910"
         inkscape:connector-curvature="0" /></clipPath><clipPath
       clipPathUnits="userSpaceOnUse"
       id="clipPath932"><path
         d="M 7.0094,105.118 H 19.8298 V 94.222 H 7.0094 Z"
         id="path930"
         inkscape:connector-curvature="0" /></clipPath></defs><sodipodi:namedview
     pagecolor="#ffffff"
     bordercolor="#666666"
     borderopacity="1"
     objecttolerance="10"
     gridtolerance="10"
     guidetolerance="10"
     inkscape:pageopacity="0"
     inkscape:pageshadow="2"
     inkscape:window-width="1920"
     inkscape:window-height="1025"
     id="namedview4"
     showgrid="false"
     fit-margin-top="0"
     fit-margin-left="0"
     fit-margin-right="0"
     fit-margin-bottom="0"
     inkscape:zoom="0.70799998"
     inkscape:cx="207.15448"
     inkscape:cy="339.82744"
     inkscape:window-x="0"
     inkscape:window-y="27"
     inkscape:window-maximized="1"
     inkscape:current-layer="g24" /><g
     id="g10"
     inkscape:groupmode="layer"
     inkscape:label="3634670"
     transform="matrix(1.3333333,0,0,-1.3333333,6.6666665e-4,570.74425)"><g
       id="g22"><g
         id="g24"
         clip-path="url(#clipPath28)"><g
           id="g2103"><g
             transform="translate(389.827,270.2368)"
             id="g30"><path
               inkscape:connector-curvature="0"
               id="path32"
               style="fill:#1a2229;fill-opacity:1;fill-rule:nonzero;stroke:none"
               d="M 0,0 C -0.579,-0.119 -1.161,-0.237 -1.744,-0.354 -1.094,-0.672 -0.324,-0.648 0,0" /></g><g
             transform="translate(412.5995,298.7007)"
             id="g34"><path
               inkscape:connector-curvature="0"
               id="path36"
               style="fill:#1a2229;fill-opacity:1;fill-rule:nonzero;stroke:none"
               d="m 0,0 c 4.104,7.876 5.131,17.305 2.821,25.88 l -111.017,-0.462 c -1.945,-7.087 1.616,-14.403 5.132,-20.857 3.515,-6.454 7.215,-13.645 5.55,-20.804 2.112,2.063 4.222,4.125 6.332,6.188 0.669,-6.89 5.1,-13.297 11.31,-16.356 2.806,-1.381 5.923,-2.117 8.576,-3.773 2.654,-1.654 4.856,-4.667 4.219,-7.728 6.428,4.817 11.898,10.908 15.999,17.814 1.466,-5.244 6.757,-8.696 12.121,-9.63 4.782,-0.833 9.659,-0.047 14.44,0.91 -0.506,0.248 -0.942,0.697 -1.028,1.256 -0.194,1.274 0.678,2.441 1.498,3.436 4.071,4.932 8.142,9.864 12.213,14.797 -0.737,-2.962 0.196,-6.281 2.369,-8.424 2.173,-2.143 5.505,-3.032 8.456,-2.253 -3.534,1.425 -4.764,6.022 -3.922,9.738 C -4.088,-6.551 -1.761,-3.379 0,0" /></g><g
             style="fill:#9c7248;fill-opacity:1"
             transform="translate(150.4764,149.2803)"
             id="g38"><path
               inkscape:connector-curvature="0"
               id="path40"
               style="fill:#9c7248;fill-opacity:1;fill-rule:nonzero;stroke:none"
               d="m 0,0 c -0.715,0.19 -1.326,0.354 -1.901,0.453 -14.948,3.166 -15.903,6.755 -15.079,8.611 0.119,0.243 0.301,0.521 0.487,0.799 l 0.064,0.037 c 0.275,0.418 0.533,0.569 0.533,0.569 0.129,0.075 0.258,0.149 0.425,0.161 4.054,2.087 12.055,0.937 20.865,-1.468 2.931,-0.891 5.965,-1.809 8.971,-2.829 7.999,-2.789 26.799,-10.974 27.486,-11.266 0.343,-0.147 0.687,-0.293 1.031,-0.439 0.101,-0.026 0.139,-0.092 0.139,-0.092 l 102.68,20.619 c 25.303,5.149 55.743,-2.082 73.43,-7.663 -1.766,-22.68 -20.786,-41.464 -45.108,-41.309 0,0 -124.289,0.925 -124.485,0.838 l -2.669,0.151 c -0.296,-0.084 -0.618,-0.272 -0.914,-0.357 -0.722,-0.245 -1.405,-0.554 -2.126,-0.798 -3.374,-1.178 -6.563,-2.075 -9.533,-2.758 -0.925,-0.191 -1.915,-0.418 -2.904,-0.647 -1.721,-0.306 -3.543,-0.584 -5.367,-0.863 -1.527,-0.193 -2.963,-0.249 -4.296,-0.33 -3.704,-0.159 -6.797,0.12 -9.199,0.542 -1.456,0.279 -2.966,0.353 -4.503,0.325 -0.167,-0.009 -0.371,0.046 -0.564,-0.067 -3.575,-0.084 -6.985,-1.197 -9.975,-3.186 -0.517,-0.3 -0.931,-0.626 -1.384,-0.887 -18.178,-11.818 -18.859,-6.171 -18.859,-6.171 -1.805,6.546 17.965,16.956 24.069,19.971 -16.682,-7.844 -30.794,-17.741 -30.794,-17.741 -0.787,-0.282 -1.378,-0.452 -2.008,-0.558 l -0.065,-0.037 c -2.129,-0.197 -3.044,1.086 -3.422,2.332 -0.404,1.147 -0.373,2.287 -0.373,2.287 -1.639,4.917 30.369,19.823 35.218,22.025 -32.891,-12.483 -36.375,-17.346 -36.375,-17.346 -2.114,-0.966 -3.118,-0.425 -3.641,0.481 -0.187,0.322 -0.272,0.618 -0.358,0.914 -0.208,0.656 -0.184,1.361 -0.203,1.693 -0.011,0.167 0.018,0.27 0.018,0.27 3.533,8.947 15.834,15.12 25.815,18.741 0.49,0.196 1.018,0.329 1.507,0.526 6.093,2.146 10.938,3.312 11.928,3.54 -11.356,0.242 -22.803,-4.572 -29.415,-8.055 -0.361,-0.122 -0.62,-0.272 -0.943,-0.459 -1.662,-0.705 -3.148,-1.565 -4.458,-2.581 -0.194,-0.113 -0.259,-0.15 -0.259,-0.15 -0.35,-0.289 -0.7,-0.578 -1.061,-0.701 -4.687,-3.23 -4.883,2.178 -4.842,3.149 0.026,0.103 -0.011,0.168 -0.011,0.168 C -29.595,2.539 -2.493,0.283 0,0" /></g><g
             transform="translate(-0.0054,-0.0016)"
             style="fill:#9c7248;fill-opacity:1"
             id="g42"><g
               style="fill:#9c7248;fill-opacity:1"
               id="g44" /><g
               style="fill:#9c7248;fill-opacity:1"
               id="g56"><g
                 style="opacity:0.30999804;fill:#9c7248;fill-opacity:1"
                 id="g54"
                 clip-path="url(#clipPath48)"><g
                   style="fill:#9c7248;fill-opacity:1"
                   id="g52"
                   transform="translate(324.5038,115.4639)"><path
                     inkscape:connector-curvature="0"
                     id="path50"
                     style="fill:#9c7248;fill-opacity:1;fill-rule:nonzero;stroke:none"
                     d="m 0,0 c 0,0 -45.247,0.341 -81.184,0.586 -23.626,0.162 -43.222,0.29 -43.3,0.253 l -2.677,0.154 c -0.297,-0.085 -0.614,-0.279 -0.91,-0.365 -0.721,-0.239 -1.403,-0.547 -2.123,-0.796 -3.376,-1.176 -6.563,-2.07 -9.541,-2.758 -0.917,-0.188 -1.912,-0.414 -2.899,-0.641 -1.724,-0.307 -3.547,-0.584 -5.371,-0.87 -1.526,-0.193 -2.963,-0.247 -4.292,-0.324 -3.7,-0.16 -6.797,0.117 -9.203,0.535 -1.454,0.28 -2.968,0.355 -4.503,0.33 -0.167,-0.008 -0.364,0.042 -0.561,-0.073 -3.573,-0.084 -6.987,-1.191 -9.978,-3.178 -0.515,-0.3 -0.932,-0.63 -1.377,-0.892 -18.18,-11.814 -18.861,-6.169 -18.861,-6.169 -1.78,6.445 17.393,16.648 23.791,19.836 -16.562,-7.82 -30.519,-17.606 -30.519,-17.606 -0.79,-0.286 -1.382,-0.457 -2.012,-0.559 l -0.06,-0.039 c -2.127,-0.195 -3.048,1.093 -3.42,2.336 -0.411,1.145 -0.371,2.285 -0.371,2.285 -1.644,4.917 30.36,19.82 35.213,22.025 -32.895,-12.484 -36.377,-17.348 -36.377,-17.348 -2.114,-0.964 -3.112,-0.423 -3.635,0.486 -0.193,0.318 -0.279,0.614 -0.364,0.91 -0.2,0.66 -0.184,1.36 -0.2,1.695 -0.009,0.166 0.012,0.265 0.012,0.265 3.541,8.946 15.841,15.122 25.824,18.742 0.484,0.202 1.016,0.334 1.501,0.527 6.091,2.153 10.943,3.315 11.928,3.542 -11.35,0.239 -22.801,-4.577 -29.416,-8.052 -0.356,-0.125 -0.613,-0.271 -0.94,-0.464 -1.659,-0.702 -3.144,-1.563 -4.462,-2.582 -0.188,-0.107 -0.257,-0.145 -0.257,-0.145 -0.348,-0.292 -0.695,-0.583 -1.06,-0.699 -4.685,-3.229 -4.878,2.173 -4.839,3.147 0.021,0.099 -0.008,0.168 -0.008,0.168 12.831,22.097 39.933,19.842 42.428,19.551 -0.715,0.195 -1.333,0.359 -1.904,0.453 -14.952,3.169 -15.9,6.758 -15.084,8.62 0.119,0.235 0.309,0.517 0.489,0.792 l 0.069,0.038 c 0.27,0.421 0.527,0.566 0.527,0.566 0.129,0.077 0.258,0.155 0.425,0.163 4.054,2.085 12.062,0.943 20.872,-1.466 2.923,-0.894 5.964,-1.81 8.964,-2.833 8.001,-2.785 26.8,-10.969 27.485,-11.261 0.343,-0.151 0.687,-0.292 1.038,-0.444 0.099,-0.02 0.137,-0.089 0.137,-0.089 l 41.994,8.436 60.686,12.188 C -3.021,54.119 27.416,46.89 45.105,41.308 43.336,18.626 24.318,-0.16 0,0" /></g></g></g></g><g
             id="g58"><g
               id="g60" /><g
               id="g72"><g
                 style="opacity:0.72000098"
                 id="g70"
                 clip-path="url(#clipPath64)"><g
                   id="g68"
                   transform="translate(208.0936,119.0244)"><path
                     inkscape:connector-curvature="0"
                     id="path66"
                     style="fill:#a3cbf0;fill-opacity:1;fill-rule:nonzero;stroke:none"
                     d="m 0,0 c -1.837,-9.511 -9.774,-17.549 -19.263,-19.505 -4.952,-1.02 -10.167,-0.339 -14.8,1.674 -1.465,-0.19 -2.927,-0.062 -4.188,0.677 -0.754,0.441 -1.32,1.175 -1.654,1.997 -1.78,-5.312 -5.354,-10.028 -10.058,-13.079 -5.927,-3.846 -13.536,-4.99 -20.331,-3.056 -3.185,0.906 -6.374,2.644 -7.843,5.611 -1.281,2.59 -0.637,6.199 1.631,7.783 -4.381,-2.188 -9.309,-3.483 -14.124,-2.716 -5.219,0.832 -10.181,4.453 -11.547,9.557 -1.058,3.958 0.616,8.555 3.841,10.879 -0.861,-0.073 -1.746,0.028 -2.56,0.309 -1.932,0.667 -3.491,2.146 -4.691,3.802 -4.351,5.999 -4.241,14.855 0.258,20.744 4.5,5.887 13.016,8.32 19.947,5.697 -3.491,3.715 -3.136,9.924 -0.3,14.161 2.835,4.237 7.576,6.812 12.368,8.552 4.891,1.775 10.36,2.838 15.255,1.072 4.896,-1.765 8.745,-7.174 7.243,-12.157 5.321,5.1 13.886,6.45 20.519,3.237 6.632,-3.213 10.881,-10.772 10.179,-18.108 3.107,1.28 6.698,-0.002 9.501,-1.858 C -2.539,19.928 1.836,9.512 0,0" /></g></g></g></g><g
             id="g74"><g
               id="g76" /><g
               id="g88"><g
                 style="opacity:0.72000098"
                 id="g86"
                 clip-path="url(#clipPath80)"><g
                   id="g84"
                   transform="translate(129.3524,156.1904)"><path
                     inkscape:connector-curvature="0"
                     id="path82"
                     style="fill:#ffffff;fill-opacity:1;fill-rule:nonzero;stroke:none"
                     d="M 0,0 C 1.353,3.731 4.268,6.942 7.982,8.424 12.1,10.065 16.651,9.708 20.511,7.559 21.449,7.035 21.633,5.649 21.072,4.802 20.441,3.848 19.257,3.716 18.315,4.24 12.796,7.314 5.85,4.466 3.768,-1.281 2.896,-3.685 -0.875,-2.416 0,0" /></g></g></g></g><g
             id="g90"><g
               id="g92" /><g
               id="g104"><g
                 style="opacity:0.72000098"
                 id="g102"
                 clip-path="url(#clipPath96)"><g
                   id="g100"
                   transform="translate(113.4921,139.6562)"><path
                     inkscape:connector-curvature="0"
                     id="path98"
                     style="fill:#ffffff;fill-opacity:1;fill-rule:nonzero;stroke:none"
                     d="M 0,0 C 3.215,3.236 7.995,4.707 12.489,4.047 15.065,3.669 17.543,2.714 19.607,1.11 20.456,0.452 20.794,-0.702 20.17,-1.646 19.611,-2.491 18.266,-2.87 17.413,-2.208 13.849,0.559 8.936,1.015 5.062,-1.112 3.225,-2.121 1.757,-3.722 0.721,-5.625 c -0.969,-1.78 -1.476,-4.136 -1.294,-6.073 0.1,-1.07 -0.418,-2.115 -1.552,-2.347 -0.967,-0.196 -2.245,0.477 -2.347,1.553 C -4.907,-7.854 -3.291,-3.314 0,0" /></g></g></g></g><g
             id="g106"><g
               id="g108" /><g
               id="g120"><g
                 style="opacity:0.72000098"
                 id="g118"
                 clip-path="url(#clipPath112)"><g
                   id="g116"
                   transform="translate(184.8563,142.6894)"><path
                     inkscape:connector-curvature="0"
                     id="path114"
                     style="fill:#ffffff;fill-opacity:1;fill-rule:nonzero;stroke:none"
                     d="m 0,0 c 5.661,0.495 11.277,-1.433 15.314,-5.478 4.135,-4.144 6.076,-10.419 5.096,-16.176 -0.181,-1.059 -0.972,-1.928 -2.121,-1.851 -0.989,0.068 -2.031,1.056 -1.85,2.121 0.803,4.718 -0.565,9.609 -3.914,13.072 -2.984,3.088 -7.547,4.779 -11.731,4.414 -1.07,-0.094 -2.114,0.413 -2.347,1.551 C -1.748,-1.386 -1.078,-0.095 0,0" /></g></g></g></g><g
             transform="translate(210.9012,115.0869)"
             id="g122"><path
               inkscape:connector-curvature="0"
               id="path124"
               style="fill:#feba29;fill-opacity:1;fill-rule:nonzero;stroke:none"
               d="m 0,0 c -0.138,1.197 -0.422,2.402 -0.784,3.57 -0.07,0.277 -0.159,0.536 -0.248,0.805 -3.109,9.147 -9.836,16.768 -17.812,22.235 -7.607,5.213 -16.582,8.674 -25.857,9.07 -5.042,0.216 -12.927,-1.008 -19.158,-3.956 -7.052,-3.343 -11.971,-8.9 -8.218,-17.107 1.87,-4.075 5.471,-7.087 9.195,-9.578 7.399,-4.948 15.682,-8.403 23.996,-11.584 7.661,-2.931 15.582,-5.687 23.786,-5.848 2.873,-0.057 5.813,0.22 8.472,1.341 2.649,1.114 5.016,3.137 6.066,5.82 C 0.083,-3.572 0.199,-1.786 0,0" /></g><g
             id="g126"><g
               id="g128" /><g
               id="g200"><g
                 style="opacity:0.52999902"
                 id="g198"
                 clip-path="url(#clipPath132)"><g
                   id="g160"><g
                     id="g150" /><g
                     id="g158"><g
                       id="g156"
                       clip-path="url(#clipPath136)"><g
                         id="g154"
                         transform="translate(166.0331,139.209)"><path
                           inkscape:connector-curvature="0"
                           id="path152"
                           style="fill:#feba29;fill-opacity:1;fill-rule:nonzero;stroke:none"
                           d="M 0,0 C -0.926,1.081 -2.182,1.404 -3.56,1.344 -4.879,1.286 -6.778,0.91 -7.338,2.513 c -0.519,1.484 0.641,2.797 2.099,2.937 1.705,0.165 3.041,-1.164 3.572,-2.675 0.196,-0.557 1.075,-0.283 0.878,0.278 -0.858,2.44 -3.578,4.28 -6.07,2.822 -2.196,-1.283 -1.945,-4.813 0.646,-5.431 1.44,-0.343 3.005,0.346 4.399,-0.218 1.256,-0.51 2.001,-1.896 1.919,-3.219 -0.198,-3.223 -4.003,-4.887 -6.839,-4.262 -1.729,0.381 -2.385,1.65 -2.532,3.292 -0.119,1.348 -0.091,2.714 -0.758,3.937 -0.285,0.52 -1.062,0.027 -0.779,-0.492 1.168,-2.141 -0.087,-5.086 2.058,-6.804 2.059,-1.651 5.574,-1.103 7.564,0.393 C 0.96,-5.319 1.86,-2.175 0,0" /></g></g></g></g><g
                   id="g172"><g
                     id="g162" /><g
                     id="g170"><g
                       id="g168"
                       clip-path="url(#clipPath140)"><g
                         id="g166"
                         transform="translate(174.6659,129.2275)"><path
                           inkscape:connector-curvature="0"
                           id="path164"
                           style="fill:#feba29;fill-opacity:1;fill-rule:nonzero;stroke:none"
                           d="m 0,0 c -0.73,-0.715 -1.708,-1.237 -2.758,-1.101 -1.052,0.136 -1.925,0.888 -2.466,1.765 -1.296,2.102 -0.547,4.748 0.258,6.886 0.857,2.276 2.548,5.317 5.464,4.799 0.133,-0.024 0.243,0.008 0.331,0.068 C 1.981,12.309 2.79,11.284 3.081,10.231 3.419,9.007 3.232,7.657 2.994,6.433 2.556,4.174 1.684,1.647 0,0 M 3.843,10.87 C 3.339,12.224 2.2,13.247 0.732,13.346 0.623,13.353 0.543,13.32 0.477,13.272 -2.336,13.633 -4.376,11.276 -5.406,8.908 -6.495,6.402 -7.541,3.247 -6.249,0.623 c 1.125,-2.282 3.778,-3.444 6.029,-1.978 2.333,1.518 3.49,4.669 4.046,7.26 0.341,1.587 0.597,3.403 0.017,4.965" /></g></g></g></g><g
                   id="g184"><g
                     id="g174" /><g
                     id="g182"><g
                       id="g180"
                       clip-path="url(#clipPath144)"><g
                         id="g178"
                         transform="translate(181.6688,130.543)"><path
                           inkscape:connector-curvature="0"
                           id="path176"
                           style="fill:#feba29;fill-opacity:1;fill-rule:nonzero;stroke:none"
                           d="M 0,0 C 1.375,1.858 2.771,3.7 4.191,5.524 3.99,3.209 3.716,0.9 3.38,-1.398 2.253,-0.933 1.127,-0.467 0,0 M 5.363,7.249 C 5.395,7.683 4.737,7.907 4.476,7.576 1.352,3.616 -1.656,-0.435 -4.548,-4.567 c -0.379,-0.541 0.53,-1.02 0.905,-0.486 0.993,1.42 2.014,2.819 3.039,4.215 0.018,-0.012 0.029,-0.03 0.049,-0.039 1.258,-0.52 2.517,-1.04 3.775,-1.561 C 2.988,-3.924 2.738,-5.408 2.448,-6.885 2.32,-7.532 3.321,-7.762 3.449,-7.112 4.382,-2.368 5.018,2.427 5.363,7.249" /></g></g></g></g><g
                   id="g196"><g
                     id="g186" /><g
                     id="g194"><g
                       id="g192"
                       clip-path="url(#clipPath148)"><g
                         id="g190"
                         transform="translate(196.1171,124.7539)"><path
                           inkscape:connector-curvature="0"
                           id="path188"
                           style="fill:#feba29;fill-opacity:1;fill-rule:nonzero;stroke:none"
                           d="m 0,0 c -1.692,-0.445 -3.448,0.231 -4.919,1.044 -0.09,0.05 -0.177,0.072 -0.26,0.077 0.733,2.427 1.351,4.886 1.828,7.379 C -0.541,8.269 2.181,6.019 2.406,3.237 2.535,1.639 1.58,0.415 0,0 M 0.752,8.115 C -0.532,9.063 -2.042,9.616 -3.648,9.684 -3.95,9.697 -4.119,9.526 -4.172,9.313 -4.323,9.254 -4.448,9.136 -4.487,8.929 -5.319,4.524 -6.547,0.201 -8.18,-3.979 c -0.265,-0.682 0.793,-1.243 1.063,-0.554 0.591,1.514 1.114,3.05 1.606,4.595 0.014,-0.009 0.02,-0.021 0.035,-0.03 1.453,-0.803 3.122,-1.439 4.813,-1.308 1.408,0.109 2.784,0.732 3.59,1.863 1.742,2.442 0.047,5.888 -2.175,7.528" /></g></g></g></g></g></g></g><g
             id="g202"><g
               id="g204" /><g
               id="g216"><g
                 style="opacity:0.52999902"
                 id="g214"
                 clip-path="url(#clipPath208)"><g
                   id="g212"
                   transform="translate(210.9012,115.0869)"><path
                     inkscape:connector-curvature="0"
                     id="path210"
                     style="fill:#feba29;fill-opacity:1;fill-rule:nonzero;stroke:none"
                     d="M 0,0 C -0.138,1.197 -0.422,2.402 -0.783,3.567 -0.006,0.957 -18.697,0.402 -20.667,0.449 -36.26,0.824 -56.8,8.085 -62.874,23.959 c -0.312,0.813 -2.264,7.186 -1.192,7.647 -6.954,-3.001 -11.409,-9.587 -8.011,-16.989 1.87,-4.075 5.471,-7.087 9.195,-9.578 7.399,-4.948 15.682,-8.403 23.996,-11.584 7.661,-2.931 15.582,-5.687 23.786,-5.848 2.873,-0.057 5.813,0.22 8.472,1.341 2.649,1.114 5.016,3.137 6.066,5.82 C 0.083,-3.572 0.199,-1.786 0,0" /></g></g></g></g><g
             id="g218"><g
               id="g220" /><g
               id="g232"><g
                 style="opacity:0.72000098"
                 id="g230"
                 clip-path="url(#clipPath224)"><g
                   id="g228"
                   transform="translate(237.9335,88.7588)"><path
                     inkscape:connector-curvature="0"
                     id="path226"
                     style="fill:#a3cbf0;fill-opacity:1;fill-rule:nonzero;stroke:none"
                     d="m 0,0 c -3.573,-6.427 -11.199,-10.348 -18.506,-9.515 -3.813,0.435 -7.414,2.161 -10.28,4.707 -1.102,0.209 -2.125,0.648 -2.86,1.478 -0.44,0.497 -0.674,1.161 -0.721,1.832 -2.54,-3.411 -6.233,-5.967 -10.348,-7.056 -5.184,-1.373 -10.943,-0.398 -15.388,2.604 -2.083,1.406 -3.972,3.413 -4.33,5.901 -0.312,2.171 1.005,4.621 3.017,5.228 -3.678,-0.542 -7.538,-0.311 -10.83,1.381 -3.567,1.834 -6.29,5.619 -6.069,9.624 0.171,3.105 2.467,6.024 5.342,6.939 -0.638,0.15 -1.253,0.433 -1.773,0.827 -1.236,0.939 -2.011,2.374 -2.485,3.853 -1.721,5.355 0.453,11.718 5.09,14.901 4.638,3.183 11.357,2.924 15.736,-0.606 -1.64,3.505 0.085,7.899 3.132,10.285 3.047,2.386 7.075,3.122 10.943,3.244 3.948,0.124 8.143,-0.402 11.258,-2.833 3.113,-2.432 4.611,-7.243 2.348,-10.481 5.044,2.418 11.543,1.368 15.567,-2.518 4.024,-3.886 5.303,-10.343 3.06,-15.469 2.545,0.19 4.831,-1.584 6.415,-3.585 C 2.881,14.975 3.574,6.427 0,0" /></g></g></g></g><g
             id="g234"><g
               id="g236" /><g
               id="g248"><g
                 style="opacity:0.72000098"
                 id="g246"
                 clip-path="url(#clipPath240)"><g
                   id="g244"
                   transform="translate(189.9247,134.1855)"><path
                     inkscape:connector-curvature="0"
                     id="path242"
                     style="fill:#ffffff;fill-opacity:1;fill-rule:nonzero;stroke:none"
                     d="M 0,0 C 1.857,2.371 4.72,3.998 7.749,4.188 11.107,4.398 14.306,3.065 16.581,0.602 17.135,0.003 16.939,-1.04 16.335,-1.52 15.654,-2.059 14.769,-1.873 14.214,-1.272 10.959,2.25 5.275,1.838 2.414,-1.815 1.218,-3.343 -1.203,-1.536 0,0" /></g></g></g></g><g
             id="g250"><g
               id="g252" /><g
               id="g264"><g
                 style="opacity:0.72000098"
                 id="g262"
                 clip-path="url(#clipPath256)"><g
                   id="g260"
                   transform="translate(174.5751,126.0088)"><path
                     inkscape:connector-curvature="0"
                     id="path258"
                     style="fill:#ffffff;fill-opacity:1;fill-rule:nonzero;stroke:none"
                     d="m 0,0 c 3.084,1.574 6.88,1.505 9.965,-0.033 1.769,-0.882 3.33,-2.157 4.44,-3.802 0.456,-0.676 0.427,-1.588 -0.246,-2.122 -0.602,-0.477 -1.663,-0.432 -2.121,0.247 -1.917,2.839 -5.353,4.329 -8.65,3.711 C 1.824,-2.292 0.387,-3.101 -0.811,-4.228 -1.931,-5.283 -2.853,-6.862 -3.18,-8.303 -3.36,-9.098 -3.981,-9.729 -4.854,-9.628 -5.598,-9.542 -6.361,-8.754 -6.18,-7.954 -5.396,-4.505 -3.158,-1.612 0,0" /></g></g></g></g><g
             id="g266"><g
               id="g268" /><g
               id="g280"><g
                 style="opacity:0.72000098"
                 id="g278"
                 clip-path="url(#clipPath272)"><g
                   id="g276"
                   transform="translate(226.7674,111.3232)"><path
                     inkscape:connector-curvature="0"
                     id="path274"
                     style="fill:#ffffff;fill-opacity:1;fill-rule:nonzero;stroke:none"
                     d="m 0,0 c 4.201,-0.981 7.797,-3.7 9.752,-7.572 2.003,-3.967 1.919,-8.952 -0.149,-12.873 -0.381,-0.721 -1.157,-1.161 -1.967,-0.833 -0.699,0.281 -1.216,1.241 -0.833,1.966 1.694,3.213 1.863,7.065 0.267,10.355 C 5.647,-6.024 2.755,-3.726 -0.349,-3 -1.143,-2.814 -1.776,-2.202 -1.674,-1.326 -1.588,-0.587 -0.799,0.187 0,0" /></g></g></g></g><g
             style="fill:#008080;fill-opacity:1"
             transform="translate(339.4745,268.1499)"
             id="g282"><path
               inkscape:connector-curvature="0"
               id="path284"
               style="fill:#008080;fill-opacity:1;fill-rule:nonzero;stroke:none"
               d="m 0,0 33.142,3.362 61.465,-18.353 c 9.84,-31.766 -24.971,-173.383 7.197,-247.297 0.019,-0.055 1.975,-6.285 1.975,-6.285 H -63.456 c 4.714,20.773 10.514,83.379 10.514,83.379 -1.374,22.192 -12.519,90.404 -6.136,115.972 C -48.736,-27.8 -22.497,-2.282 0,0" /></g><g
             style="fill:#9c7248;fill-opacity:1"
             transform="translate(385.5897,258.332)"
             id="g286"><path
               inkscape:connector-curvature="0"
               id="path288"
               style="fill:#9c7248;fill-opacity:1;fill-rule:nonzero;stroke:none"
               d="m 0,0 c -0.032,-8.759 -5.137,-16.887 -13.114,-20.846 -2.122,-0.997 -4.313,-1.74 -6.459,-2.057 -12.701,-1.973 -24.919,7.952 -24.08,21.702 l 0.006,0.357 0.081,0.5 0.05,0.965 0.574,6.246 1.307,31.657 c 0.173,1.678 1.178,3.196 2.751,3.953 l 14.34,-8.965 9.715,5.857 14.626,8.838 0.659,0.345 L 0.141,44.696 -0.011,15.09 0.056,8.009 Z" /></g><g
             style="fill:#9c7248;fill-opacity:1"
             id="g290"><g
               style="fill:#9c7248;fill-opacity:1"
               id="g292" /><g
               style="fill:#9c7248;fill-opacity:1"
               id="g304"><g
                 style="fill:#9c7248;fill-opacity:1"
                 id="g302"
                 clip-path="url(#clipPath296)"><g
                   style="fill:#9c7248;fill-opacity:1"
                   id="g300"
                   transform="translate(375.9569,300.2471)"><path
                     inkscape:connector-curvature="0"
                     id="path298"
                     style="fill:#9c7248;fill-opacity:1;fill-rule:nonzero;stroke:none"
                     d="m 0,0 c 0.264,-19.637 -13.854,-37.423 -34.021,-43.116 l 0.006,0.357 0.081,0.5 0.051,0.965 0.573,6.246 1.308,31.657 c 0.173,1.678 1.178,3.196 2.751,3.953 l 14.34,-8.965 9.715,5.857 z" /></g></g></g></g><g
             style="fill:#9c7248;fill-opacity:1"
             transform="translate(309.1259,316.9609)"
             id="g306"><path
               inkscape:connector-curvature="0"
               id="path308"
               style="fill:#9c7248;fill-opacity:1;fill-rule:nonzero;stroke:none"
               d="m 0,0 c 0.181,-0.772 0.36,-1.543 0.54,-2.315 1.727,-6.626 4.824,-14.359 10.22,-21.485 10.463,-13.676 29.071,-19.257 45.099,-12.535 7.178,2.998 15.447,8.189 24.465,16.869 1.1,1.068 2.197,2.166 3.323,3.33 0,0 9.023,9.117 13.393,23.903 0.483,1.563 0.898,3.184 1.242,4.895 0,0 18.161,0.84 15.722,19.005 0,0 -2.406,18.135 -16.223,10.356 0,0 7.542,36.543 -14.312,45.623 0,0 -30.857,21.247 -61.146,-2.451 C 17.225,81.195 13.102,76.159 9.82,70.641 5.165,62.786 -0.818,50.376 0.062,39.755 c 0,0 1.266,-6.527 0.296,-15.131 C 0.212,23.363 0.006,22.036 -0.233,20.707 -1.477,13.809 -1.445,6.799 0,0" /></g><g
             transform="translate(332.0966,361.9204)"
             id="g310"><path
               inkscape:connector-curvature="0"
               id="path312"
               style="fill:#1a2229;fill-opacity:1;fill-rule:nonzero;stroke:none"
               d="m 0,0 c -0.638,0.672 -1.548,1.02 -2.446,1.275 -5.955,1.687 -12.741,-0.209 -17.068,-4.56 0.823,0.502 1.684,0.931 2.634,1.143 0.058,0.012 0.108,0.008 0.162,0.017 0.563,0.173 1.14,0.301 1.721,0.359 2.138,0.214 4.281,-0.244 6.364,-0.756 2.084,-0.511 4.182,-1.082 6.329,-1.101 1.038,-0.007 2.23,0.206 2.756,1.087 C 0.927,-1.742 0.64,-0.672 0,0" /></g><g
             transform="translate(349.1132,361.3687)"
             id="g314"><path
               inkscape:connector-curvature="0"
               id="path316"
               style="fill:#1a2229;fill-opacity:1;fill-rule:nonzero;stroke:none"
               d="m 0,0 c 0.654,0.658 1.572,0.986 2.476,1.222 5.992,1.559 12.732,-0.482 16.958,-4.925 -0.811,0.519 -1.663,0.967 -2.607,1.2 -0.057,0.012 -0.107,0.009 -0.162,0.02 -0.559,0.185 -1.133,0.325 -1.712,0.396 -2.132,0.259 -4.285,-0.153 -6.38,-0.62 C 6.478,-3.173 4.367,-3.7 2.221,-3.672 1.183,-3.657 -0.004,-3.418 -0.51,-2.526 -0.966,-1.723 -0.654,-0.658 0,0" /></g><g
             transform="translate(338.8993,320.7373)"
             id="g318"><path
               inkscape:connector-curvature="0"
               id="path320"
               style="fill:#cd632a;fill-opacity:1;fill-rule:nonzero;stroke:none"
               d="M 0,0 C -1.89,-0.287 -3.815,-0.181 -5.624,0.461 -6.49,0.768 -7.395,1.18 -8.127,1.734 -8.253,1.831 -8.544,2.043 -8.592,2.21 c 0.042,-0.146 0.044,0.002 0.055,0.077 0.061,0.474 0.462,1.036 0.669,1.464 1.875,3.875 4.074,7.599 6.592,11.104 0.523,0.73 0.574,1.707 -0.16,2.337 -0.629,0.542 -1.843,0.575 -2.371,-0.159 -1.587,-2.209 -3.077,-4.485 -4.436,-6.836 -0.644,-1.114 -1.26,-2.245 -1.847,-3.389 -0.606,-1.183 -1.349,-2.429 -1.697,-3.715 -0.767,-2.834 2.106,-4.593 4.384,-5.492 2.418,-0.955 5.047,-1.298 7.628,-0.906 0.896,0.137 1.629,0.817 1.564,1.764 C 1.732,-0.705 0.903,0.137 0,0" /></g><g
             style="fill:#a05a2c"
             id="g322"><g
               style="fill:#a05a2c"
               id="g324" /><g
               style="fill:#a05a2c"
               id="g336"><g
                 style="fill:#a05a2c"
                 id="g334"
                 clip-path="url(#clipPath328)"><g
                   style="fill:#a05a2c"
                   id="g332"
                   transform="translate(338.8993,320.7373)"><path
                     inkscape:connector-curvature="0"
                     id="path330"
                     style="fill:#a05a2c;fill-opacity:1;fill-rule:nonzero;stroke:none"
                     d="M 0,0 C -1.89,-0.287 -3.815,-0.181 -5.624,0.461 -6.49,0.768 -7.395,1.18 -8.127,1.734 -8.253,1.831 -8.544,2.043 -8.592,2.21 c 0.042,-0.146 0.044,0.002 0.055,0.077 0.061,0.474 0.462,1.036 0.669,1.464 1.875,3.875 4.074,7.599 6.592,11.104 0.523,0.73 0.574,1.707 -0.16,2.337 -0.629,0.542 -1.843,0.575 -2.371,-0.159 -1.587,-2.209 -3.077,-4.485 -4.436,-6.836 -0.644,-1.114 -1.26,-2.245 -1.847,-3.389 -0.606,-1.183 -1.349,-2.429 -1.697,-3.715 -0.767,-2.834 2.106,-4.593 4.384,-5.492 2.418,-0.955 5.047,-1.298 7.628,-0.906 0.896,0.137 1.629,0.817 1.564,1.764 C 1.732,-0.705 0.903,0.137 0,0" /></g></g></g></g><g
             style="fill:#ff5555"
             id="g338"><g
               style="fill:#ff5555"
               id="g340" /><g
               style="fill:#ff5555"
               id="g352"><g
                 style="fill:#ff5555"
                 id="g350"
                 clip-path="url(#clipPath344)"><g
                   style="fill:#ff5555"
                   id="g348"
                   transform="translate(356.163,316.8721)"><path
                     inkscape:connector-curvature="0"
                     id="path346"
                     style="fill:#ff5555;fill-opacity:1;fill-rule:nonzero;stroke:none"
                     d="m 0,0 c -3.468,-6.158 -10.786,-9.405 -17.895,-7.696 -1.939,0.466 -2.872,-2.4 -0.925,-2.868 8.399,-2.019 17.305,1.594 21.458,8.966 C 3.591,0.095 0.958,1.701 0,0" /></g></g></g></g><g
             transform="translate(362.7284,340.2256)"
             id="g354"><path
               inkscape:connector-curvature="0"
               id="path356"
               style="fill:#1a2229;fill-opacity:1;fill-rule:nonzero;stroke:none"
               d="m 0,0 c -0.281,-3.05 -2.231,-5.405 -4.357,-5.263 -2.125,0.143 -3.621,2.731 -3.339,5.782 0.282,3.05 2.231,5.407 4.357,5.265 C -1.214,5.639 0.281,3.051 0,0" /></g><g
             transform="translate(328.0135,341.377)"
             id="g358"><path
               inkscape:connector-curvature="0"
               id="path360"
               style="fill:#1a2229;fill-opacity:1;fill-rule:nonzero;stroke:none"
               d="m 0,0 c -0.281,-3.051 -2.23,-5.406 -4.356,-5.263 -2.126,0.142 -3.621,2.731 -3.339,5.782 0.281,3.049 2.231,5.407 4.357,5.265 C -1.214,5.64 0.281,3.052 0,0" /></g><g
             style="fill:#008080;fill-opacity:1"
             transform="translate(398.1298,282.8423)"
             id="g362"><path
               inkscape:connector-curvature="0"
               id="path364"
               style="fill:#008080;fill-opacity:1;fill-rule:nonzero;stroke:none"
               d="M 0,0 C -0.616,1.335 -1.834,2.262 -3.289,2.477 -4.899,2.713 -6.519,2.178 -7.978,1.545 -9.653,0.817 -11.24,-0.112 -12.889,-0.9 -19.775,-4.19 -27.126,-6.499 -34.644,-7.802 -42.16,-9.104 -49.86,-9.378 -57.45,-8.604 c -0.27,0.027 -0.54,0.056 -0.81,0.087 -2.548,0.287 -4.775,-1.76 -4.64,-4.322 0.638,-12.14 2.929,-24.127 4.39,-36.198 1.69,-1.07 3.475,-1.994 5.336,-2.723 5.996,-2.351 12.587,-2.808 18.863,-1.399 6.557,1.473 12.606,4.84 17.606,9.293 5.343,4.759 9.404,10.794 12.195,17.361 2.93,6.889 4.557,14.336 5.081,21.794 C 0.682,-3.138 0.674,-1.46 0,0" /></g><g
             style="fill:#008072;fill-opacity:1"
             id="g366"><g
               style="fill:#008072;fill-opacity:1"
               id="g368" /><g
               style="fill:#008072;fill-opacity:1"
               id="g380"><g
                 style="fill:#008072;fill-opacity:1"
                 id="g378"
                 clip-path="url(#clipPath372)"><g
                   style="fill:#008072;fill-opacity:1"
                   id="g376"
                   transform="translate(338.1552,267.873)"><path
                     inkscape:connector-curvature="0"
                     id="path374"
                     style="fill:#008072;fill-opacity:1;fill-rule:nonzero;stroke:none"
                     d="M 0,0 C -0.062,0.74 -0.588,1.375 -1.375,1.375 -2.071,1.375 -2.812,0.744 -2.75,0 c 0.682,-8.24 1.363,-16.48 2.045,-24.721 0.061,-0.74 0.588,-1.375 1.375,-1.375 0.696,0 1.436,0.631 1.375,1.375 C 1.363,-16.48 0.682,-8.24 0,0" /></g></g></g></g><g
             style="fill:#008072;fill-opacity:1"
             id="g382"><g
               style="fill:#008072;fill-opacity:1"
               id="g384" /><g
               style="fill:#008072;fill-opacity:1"
               id="g396"><g
                 style="fill:#008072;fill-opacity:1"
                 id="g394"
                 clip-path="url(#clipPath388)"><g
                   style="fill:#008072;fill-opacity:1"
                   id="g392"
                   transform="translate(396.8934,263.4448)"><path
                     inkscape:connector-curvature="0"
                     id="path390"
                     style="fill:#008072;fill-opacity:1;fill-rule:nonzero;stroke:none"
                     d="m 0,0 c -0.767,0.21 -1.437,-0.26 -1.691,-0.96 -2.151,-5.887 -6.576,-10.757 -11.723,-14.274 -6.028,-4.119 -13.007,-6.433 -20.083,-8.01 -4.29,-0.956 -8.633,-1.652 -12.972,-2.345 -0.733,-0.118 -1.141,-1.033 -0.96,-1.692 0.215,-0.781 0.955,-1.078 1.692,-0.961 7.918,1.265 15.916,2.546 23.447,5.398 6.504,2.463 12.661,6.12 17.321,11.352 2.569,2.885 4.603,6.169 5.929,9.801 C 1.215,-0.994 0.674,-0.185 0,0" /></g></g></g></g><g
             style="fill:#008080;fill-opacity:1"
             transform="translate(386.6737,93.2217)"
             id="g398"><path
               inkscape:connector-curvature="0"
               id="path400"
               style="fill:#008080;fill-opacity:1;fill-rule:nonzero;stroke:none"
               d="m 0,0 0.014,-3.802 -12.341,1.158 c 25.649,-2.442 52.632,-18.239 67.949,-28.769 1.729,4.438 2.822,9.286 3.012,14.407 l 7.37,146.137 c 0.441,8.391 -2.448,16.216 -7.537,22.156 -5.137,5.996 -12.529,10.059 -21.044,10.87 -18.21,1.662 -34.035,-12.374 -34.471,-30.678 z" /></g><g
             style="fill:#008072;fill-opacity:1"
             id="g402"><g
               style="fill:#008072;fill-opacity:1"
               id="g404" /><g
               style="fill:#008072;fill-opacity:1"
               id="g416"><g
                 style="fill:#008072;fill-opacity:1"
                 id="g414"
                 clip-path="url(#clipPath408)"><g
                   style="fill:#008072;fill-opacity:1"
                   id="g412"
                   transform="translate(387.8485,133.4834)"><path
                     inkscape:connector-curvature="0"
                     id="path410"
                     style="fill:#008072;fill-opacity:1;fill-rule:nonzero;stroke:none"
                     d="M 0,0 C 0.3,13.496 0.767,26.988 1.402,40.473 1.759,48.048 2.17,55.621 2.632,63.19 2.705,64.385 1.903,65.641 0.62,65.731 -0.563,65.815 -1.843,65.001 -1.921,63.72 -2.744,50.246 -3.401,36.762 -3.89,23.271 -4.377,9.781 -4.697,-3.716 -4.85,-17.214 c -0.085,-7.583 -0.117,-15.167 -0.096,-22.751 0.003,-1.194 0.675,-2.446 2.011,-2.541 1.12,-0.079 2.545,0.728 2.541,2.012 C -0.43,-26.995 -0.299,-13.495 0,0" /></g></g></g></g><g
             transform="translate(230.5223,118.6084)"
             id="g418"><path
               inkscape:connector-curvature="0"
               id="path420"
               style="fill:#cd632a;fill-opacity:1;fill-rule:nonzero;stroke:none"
               d="m 0,0 c -0.629,0.391 -1.166,0.726 -1.687,0.988 -13.373,7.39 -13.239,11.102 -11.91,12.637 0.185,0.196 0.441,0.409 0.7,0.622 l 0.072,0.017 c 0.385,0.319 0.676,0.387 0.676,0.387 0.145,0.035 0.29,0.069 0.453,0.031 C -7.21,15.494 0.107,12.061 7.832,7.189 10.376,5.48 13.01,3.718 15.588,1.865 22.425,-3.136 38.018,-16.45 38.59,-16.93 c 0.286,-0.241 0.572,-0.48 0.857,-0.721 0.09,-0.055 0.108,-0.128 0.108,-0.128 l 104.227,-10.24 c 25.704,-2.459 52.71,-18.257 67.998,-28.756 -8.306,-21.177 -31.98,-33.594 -55.198,-26.349 0,0 -118.609,37.151 -118.823,37.125 l -2.509,0.924 c -0.307,0.006 -0.671,-0.079 -0.979,-0.074 -0.76,-0.025 -1.505,-0.121 -2.266,-0.145 -3.57,-0.141 -6.883,-0.068 -9.923,0.145 -0.939,0.086 -1.953,0.158 -2.966,0.229 -1.736,0.209 -3.559,0.475 -5.385,0.74 -1.517,0.26 -2.907,0.626 -4.206,0.938 -3.588,0.928 -6.466,2.097 -8.64,3.202 -1.311,0.692 -2.734,1.204 -4.211,1.626 -0.163,0.039 -0.343,0.151 -0.56,0.1 -3.444,0.961 -7.031,0.894 -10.47,-0.137 -0.582,-0.135 -1.075,-0.326 -1.583,-0.445 -20.836,-5.999 -19.839,-0.4 -19.839,-0.4 0.183,6.788 22.131,10.976 28.849,12.079 -18.245,-2.635 -34.632,-7.983 -34.632,-7.983 -0.834,-0.04 -1.45,-0.03 -2.083,0.054 l -0.072,-0.018 c -2.094,0.433 -2.595,1.927 -2.593,3.229 -0.052,1.215 0.311,2.295 0.311,2.295 -0.134,5.183 34.83,10.1 40.111,10.791 -35.101,-2.341 -39.852,-5.977 -39.852,-5.977 -2.305,-0.306 -3.107,0.504 -3.344,1.522 -0.084,0.364 -0.079,0.671 -0.074,0.979 -0.008,0.688 0.221,1.355 0.299,1.679 0.039,0.164 0.095,0.252 0.095,0.252 5.991,7.528 19.558,9.843 30.161,10.393 0.526,0.045 1.069,0.019 1.595,0.064 6.453,0.275 11.429,-0.024 12.442,-0.094 -10.79,3.545 -23.145,2.28 -30.486,0.878 -0.381,-0.012 -0.671,-0.079 -1.036,-0.163 -1.795,-0.19 -3.468,-0.579 -5.017,-1.169 -0.218,-0.05 -0.291,-0.067 -0.291,-0.067 -0.418,-0.175 -0.838,-0.349 -1.219,-0.361 -5.425,-1.722 -4.035,3.508 -3.712,4.426 0.055,0.089 0.038,0.163 0.038,0.163 C -27.566,11.063 -2.302,0.998 0,0" /></g><g
             style="fill:#9c7248;fill-opacity:1"
             transform="translate(230.5223,118.6084)"
             id="g422"><path
               inkscape:connector-curvature="0"
               id="path424"
               style="fill:#9c7248;fill-opacity:1;fill-rule:nonzero;stroke:none"
               d="m 0,0 c -0.629,0.391 -1.166,0.726 -1.687,0.988 -13.373,7.39 -13.239,11.102 -11.91,12.637 0.185,0.196 0.441,0.409 0.7,0.622 l 0.072,0.017 c 0.385,0.319 0.676,0.387 0.676,0.387 0.145,0.035 0.29,0.069 0.453,0.031 C -7.21,15.494 0.107,12.061 7.832,7.189 10.376,5.48 13.01,3.718 15.588,1.865 22.425,-3.136 38.018,-16.45 38.59,-16.93 c 0.286,-0.241 0.572,-0.48 0.857,-0.721 0.09,-0.055 0.108,-0.128 0.108,-0.128 l 104.227,-10.24 c 25.704,-2.459 52.71,-18.257 67.998,-28.756 -8.306,-21.177 -31.98,-33.594 -55.198,-26.349 0,0 -118.609,37.151 -118.823,37.125 l -2.509,0.924 c -0.307,0.006 -0.671,-0.079 -0.979,-0.074 -0.76,-0.025 -1.505,-0.121 -2.266,-0.145 -3.57,-0.141 -6.883,-0.068 -9.923,0.145 -0.939,0.086 -1.953,0.158 -2.966,0.229 -1.736,0.209 -3.559,0.475 -5.385,0.74 -1.517,0.26 -2.907,0.626 -4.206,0.938 -3.588,0.928 -6.466,2.097 -8.64,3.202 -1.311,0.692 -2.734,1.204 -4.211,1.626 -0.163,0.039 -0.343,0.151 -0.56,0.1 -3.444,0.961 -7.031,0.894 -10.47,-0.137 -0.582,-0.135 -1.075,-0.326 -1.583,-0.445 -20.836,-5.999 -19.839,-0.4 -19.839,-0.4 0.183,6.788 22.131,10.976 28.849,12.079 -18.245,-2.635 -34.632,-7.983 -34.632,-7.983 -0.834,-0.04 -1.45,-0.03 -2.083,0.054 l -0.072,-0.018 c -2.094,0.433 -2.595,1.927 -2.593,3.229 -0.052,1.215 0.311,2.295 0.311,2.295 -0.134,5.183 34.83,10.1 40.111,10.791 -35.101,-2.341 -39.852,-5.977 -39.852,-5.977 -2.305,-0.306 -3.107,0.504 -3.344,1.522 -0.084,0.364 -0.079,0.671 -0.074,0.979 -0.008,0.688 0.221,1.355 0.299,1.679 0.039,0.164 0.095,0.252 0.095,0.252 5.991,7.528 19.558,9.843 30.161,10.393 0.526,0.045 1.069,0.019 1.595,0.064 6.453,0.275 11.429,-0.024 12.442,-0.094 -10.79,3.545 -23.145,2.28 -30.486,0.878 -0.381,-0.012 -0.671,-0.079 -1.036,-0.163 -1.795,-0.19 -3.468,-0.579 -5.017,-1.169 -0.218,-0.05 -0.291,-0.067 -0.291,-0.067 -0.418,-0.175 -0.838,-0.349 -1.219,-0.361 -5.425,-1.722 -4.035,3.508 -3.712,4.426 0.055,0.089 0.038,0.163 0.038,0.163 C -27.566,11.063 -2.302,0.998 0,0" /></g><g
             transform="translate(440.7675,372.1504)"
             id="g426"><path
               inkscape:connector-curvature="0"
               id="path428"
               style="fill:#1a2229;fill-opacity:1;fill-rule:nonzero;stroke:none"
               d="m 0,0 c -4.344,1.149 -7.381,5.357 -9.068,9.729 -1.688,4.372 -2.382,9.112 -4.06,13.488 -3.873,10.101 -13.259,17.607 -23.534,18.819 3.896,1.91 6.694,6.107 7.078,10.617 -3.36,-5.389 -10.967,-5.253 -16.753,-3.152 -5.786,2.102 -11.501,5.59 -17.579,4.832 -3.821,-0.478 -7.49,-2.638 -11.304,-2.094 -2.047,0.292 -4.019,1.085 -5.857,2.076 -9.543,5.144 -12.316,-4.184 -29.983,-0.037 2.447,-2.472 5.328,-4.465 8.455,-5.846 -12.86,-1.819 -24.508,-11.227 -29.516,-23.838 -3.092,-7.785 -3.73,-16.371 -5.618,-24.573 -1.889,-8.202 -5.5,-16.625 -12.443,-20.835 2.89,0.279 5.695,1.462 7.97,3.359 -4.048,-5.278 -1.9,-13.095 0.806,-19.253 2.706,-6.157 5.848,-13.189 3.251,-19.398 5.284,4.03 7.643,11.159 8.261,18 0.618,6.842 -0.197,13.748 0.225,20.606 0.421,6.858 2.331,14.052 7.248,18.569 -0.046,-4.619 3.797,-8.896 8.176,-9.103 0.354,9.256 5.818,18.1 13.708,22.188 -3.154,-3.351 -3.685,-8.708 -2.476,-13.253 1.208,-4.545 3.876,-8.477 6.496,-12.306 4.517,6.668 7.341,14.592 8.126,22.74 -0.196,-4.501 2.467,-8.806 5.712,-11.855 3.507,-3.295 7.747,-5.635 11.24,-8.949 5.807,-5.511 9.245,-13.698 9.209,-21.933 -0.037,-8.236 -3.545,-16.389 -9.402,-21.844 6.781,1.69 12.836,6.396 16.37,12.724 -2.244,-4.372 -2.314,-9.904 -0.183,-14.338 2.132,-4.433 6.406,-7.647 11.078,-8.328 -2.557,1.489 -3.025,5.347 -1.895,8.186 1.129,2.839 3.396,4.961 5.404,7.197 1.685,1.877 3.276,4.076 3.776,6.552 -1.014,-8.776 -3.566,-17.352 -7.531,-25.144 4.478,2.129 8.355,5.639 11.028,9.982 0.458,-5.861 6.45,-10.516 11.899,-9.244 -2.065,2.095 -2.433,5.522 -1.739,8.453 0.695,2.932 2.274,5.525 3.678,8.16 8.001,15.006 10.761,33.036 7.643,49.932 C -8.521,-1.431 -3.854,-1.772 0,0" /></g><g
             id="g430"><g
               id="g432" /><g
               id="g444"><g
                 id="g442"
                 clip-path="url(#clipPath436)"><g
                   id="g440"
                   transform="translate(360.0555,411.5298)"><path
                     inkscape:connector-curvature="0"
                     id="path438"
                     style="fill:#1a2229;fill-opacity:1;fill-rule:nonzero;stroke:none"
                     d="m 0,0 c -0.344,0.587 -1.282,0.938 -1.882,0.493 -7.395,-5.489 -12.493,-13.875 -13.94,-22.98 -0.411,-2.59 -0.561,-5.205 -0.379,-7.822 0.051,-0.741 0.595,-1.375 1.375,-1.375 0.704,0 1.427,0.63 1.375,1.375 -0.584,8.425 2.243,17.006 7.727,23.478 1.552,1.832 3.301,3.518 5.23,4.95 C 0.102,-1.439 0.403,-0.691 0,0" /></g></g></g></g><g
             id="g446"><g
               id="g448" /><g
               id="g460"><g
                 id="g458"
                 clip-path="url(#clipPath452)"><g
                   id="g456"
                   transform="translate(388.0272,352.3169)"><path
                     inkscape:connector-curvature="0"
                     id="path454"
                     style="fill:#1a2229;fill-opacity:1;fill-rule:nonzero;stroke:none"
                     d="m 0,0 c -0.743,4.866 -2.862,9.349 -5.989,13.131 -3.138,3.794 -7.061,6.832 -10.315,10.516 -3.053,3.459 -5.24,7.591 -6.434,12.045 -1.341,5.003 -1.411,10.31 -0.107,15.325 0.447,1.714 -2.206,2.445 -2.651,0.731 -2.419,-9.294 -0.525,-19.664 5.149,-27.436 2.937,-4.021 6.802,-7.159 10.243,-10.718 1.651,-1.707 3.182,-3.517 4.389,-5.568 1.165,-1.98 2.019,-4.109 2.576,-6.336 1.267,-5.053 0.898,-10.415 -1.074,-15.241 -0.281,-0.688 0.305,-1.512 0.96,-1.692 0.788,-0.216 1.409,0.27 1.691,0.96 C 0.283,-9.769 0.733,-4.802 0,0" /></g></g></g></g><g
             id="g462"><g
               id="g464" /><g
               id="g476"><g
                 id="g474"
                 clip-path="url(#clipPath468)"><g
                   id="g472"
                   transform="translate(401.0741,366.8682)"><path
                     inkscape:connector-curvature="0"
                     id="path470"
                     style="fill:#1a2229;fill-opacity:1;fill-rule:nonzero;stroke:none"
                     d="m 0,0 c -1.933,4.491 -5.096,8.233 -8.604,11.583 -3.548,3.387 -7.428,6.438 -10.705,10.103 -3.371,3.771 -6.255,8.39 -6.48,13.562 -0.032,0.742 -0.609,1.375 -1.375,1.375 -0.72,0 -1.407,-0.63 -1.375,-1.375 0.209,-4.809 2.318,-9.221 5.21,-12.992 2.99,-3.9 6.697,-7.08 10.33,-10.355 3.531,-3.182 7.025,-6.528 9.362,-10.718 2.13,-3.818 3.265,-8.16 3.404,-12.497 0.158,-4.967 -0.95,-9.929 -3.391,-14.289 -0.866,-1.545 1.509,-2.934 2.374,-1.388 C 3.345,-18.789 3.701,-8.602 0,0" /></g></g></g></g><g
             id="g478"><g
               id="g480" /><g
               id="g492"><g
                 id="g490"
                 clip-path="url(#clipPath484)"><g
                   id="g488"
                   transform="translate(412.0409,381.2407)"><path
                     inkscape:connector-curvature="0"
                     id="path486"
                     style="fill:#1a2229;fill-opacity:1;fill-rule:nonzero;stroke:none"
                     d="m 0,0 c -2.082,4.2 -4.791,8.089 -7.988,11.517 -1.209,1.297 -3.151,-0.65 -1.945,-1.944 5.398,-5.789 9.209,-12.967 11.064,-20.657 1.897,-7.87 1.579,-16.159 -0.774,-23.896 -1.346,-4.432 -3.362,-8.625 -5.961,-12.458 -0.417,-0.615 -0.118,-1.524 0.493,-1.882 0.678,-0.396 1.464,-0.123 1.882,0.494 4.876,7.193 7.714,15.696 8.26,24.362 C 5.562,-16.036 3.745,-7.554 0,0" /></g></g></g></g><g
             id="g494"><g
               id="g496" /><g
               id="g508"><g
                 id="g506"
                 clip-path="url(#clipPath500)"><g
                   id="g504"
                   transform="translate(426.1903,364.5566)"><path
                     inkscape:connector-curvature="0"
                     id="path502"
                     style="fill:#1a2229;fill-opacity:1;fill-rule:nonzero;stroke:none"
                     d="m 0,0 c -0.204,3.001 -0.64,5.99 -1.303,8.923 -0.164,0.725 -1,1.151 -1.691,0.961 -0.745,-0.205 -1.125,-0.965 -0.961,-1.692 2.218,-9.811 1.642,-20.169 -1.524,-29.709 -0.882,-2.662 -1.972,-5.241 -3.258,-7.733 -0.341,-0.66 -0.171,-1.493 0.493,-1.882 0.616,-0.36 1.54,-0.169 1.882,0.493 C -1.516,-21.25 0.717,-10.545 0,0" /></g></g></g></g><g
             id="g510"><g
               id="g512" /><g
               id="g524"><g
                 id="g522"
                 clip-path="url(#clipPath516)"><g
                   id="g520"
                   transform="translate(337.3641,405.8228)"><path
                     inkscape:connector-curvature="0"
                     id="path518"
                     style="fill:#1a2229;fill-opacity:1;fill-rule:nonzero;stroke:none"
                     d="m 0,0 c -0.358,0.612 -1.262,0.907 -1.882,0.493 -5.864,-3.915 -10.741,-9.272 -14.041,-15.509 -0.946,-1.791 -1.76,-3.653 -2.447,-5.558 -0.253,-0.698 0.284,-1.505 0.96,-1.691 0.764,-0.21 1.438,0.259 1.691,0.96 2.228,6.164 6.036,11.714 10.912,16.083 1.359,1.217 2.797,2.328 4.314,3.341 C 0.123,-1.47 0.391,-0.668 0,0" /></g></g></g></g><g
             id="g526"><g
               id="g528" /><g
               id="g540"><g
                 id="g538"
                 clip-path="url(#clipPath532)"><g
                   id="g536"
                   transform="translate(322.662,401.8071)"><path
                     inkscape:connector-curvature="0"
                     id="path534"
                     style="fill:#1a2229;fill-opacity:1;fill-rule:nonzero;stroke:none"
                     d="m 0,0 c -0.401,0.687 -1.207,0.812 -1.881,0.493 -4.688,-2.214 -7.63,-6.95 -9.121,-11.755 -1.756,-5.659 -1.76,-11.662 -3.124,-17.405 -0.709,-2.987 -1.793,-5.853 -3.62,-8.343 -0.441,-0.599 -0.101,-1.534 0.493,-1.882 0.697,-0.408 1.44,-0.107 1.881,0.494 3.347,4.56 4.319,10.264 5.052,15.737 0.716,5.362 1.298,10.974 4.226,15.642 1.382,2.203 3.238,4.021 5.601,5.137 C 0.179,-1.564 0.352,-0.601 0,0" /></g></g></g></g><g
             id="g542"><g
               id="g544" /><g
               id="g556"><g
                 id="g554"
                 clip-path="url(#clipPath548)"><g
                   id="g552"
                   transform="translate(308.3055,336.2686)"><path
                     inkscape:connector-curvature="0"
                     id="path550"
                     style="fill:#1a2229;fill-opacity:1;fill-rule:nonzero;stroke:none"
                     d="m 0,0 c -2.907,5.198 -3.698,11.439 -2.187,17.199 0.451,1.713 -2.202,2.444 -2.651,0.731 C -6.537,11.46 -5.64,4.449 -2.375,-1.388 -1.511,-2.933 0.865,-1.548 0,0" /></g></g></g></g><g
             id="g558"><g
               id="g560" /><g
               id="g572"><g
                 id="g570"
                 clip-path="url(#clipPath564)"><g
                   id="g568"
                   transform="translate(364.2655,418.7812)"><path
                     inkscape:connector-curvature="0"
                     id="path566"
                     style="fill:#1a2229;fill-opacity:1;fill-rule:nonzero;stroke:none"
                     d="m 0,0 c -5.395,2.64 -11.872,2.452 -17.182,-0.325 -1.482,-0.775 -2.853,-1.777 -4.062,-2.933 -1.281,-1.226 0.666,-3.169 1.945,-1.945 4.671,4.471 12.148,5.648 17.91,2.828 0.667,-0.326 1.488,-0.18 1.882,0.494 C 0.847,-1.276 0.669,-0.328 0,0" /></g></g></g></g><g
             id="g574"><g
               id="g576" /><g
               id="g588"><g
                 id="g586"
                 clip-path="url(#clipPath580)"><g
                   id="g584"
                   transform="translate(396.83,412.3047)"><path
                     inkscape:connector-curvature="0"
                     id="path582"
                     style="fill:#1a2229;fill-opacity:1;fill-rule:nonzero;stroke:none"
                     d="m 0,0 c -3.46,2.159 -7.169,4.196 -11.221,4.951 -3.842,0.716 -7.973,0.34 -11.324,-1.801 -0.625,-0.4 -0.878,-1.222 -0.493,-1.881 0.364,-0.623 1.253,-0.895 1.882,-0.494 6.41,4.096 14.072,0.404 19.768,-3.15 C 0.118,-3.314 1.5,-0.936 0,0" /></g></g></g></g><g
             id="g590"><g
               id="g592" /><g
               id="g604"><g
                 id="g602"
                 clip-path="url(#clipPath596)"><g
                   id="g600"
                   transform="translate(416.0009,390.5654)"><path
                     inkscape:connector-curvature="0"
                     id="path598"
                     style="fill:#1a2229;fill-opacity:1;fill-rule:nonzero;stroke:none"
                     d="m 0,0 c -0.73,3.69 -2.98,6.958 -5.836,9.349 -3.181,2.663 -7.02,4.297 -11.001,5.363 -2.345,0.629 -4.734,1.071 -7.125,1.485 -0.73,0.127 -1.481,-0.195 -1.691,-0.96 -0.183,-0.662 0.224,-1.564 0.96,-1.692 7.118,-1.232 15.299,-2.909 19.778,-9.152 1.127,-1.571 1.889,-3.232 2.264,-5.124 0.144,-0.729 1.012,-1.147 1.691,-0.961 C -0.2,-1.483 0.146,-0.731 0,0" /></g></g></g></g><g
             transform="translate(91.5057,189.5244)"
             id="g606"><path
               inkscape:connector-curvature="0"
               id="path608"
               style="fill:#3a8bc5;fill-opacity:1;fill-rule:nonzero;stroke:none"
               d="m 0,0 c 0,-2.458 -0.194,-4.88 -0.565,-7.236 h -28.399 c 1.309,3.006 1.828,6.448 1.29,10.029 -1.234,8.191 -8.09,14.603 -16.347,15.326 -0.38,0.037 -0.76,0.056 -1.141,0.065 -0.658,0.018 -1.308,0 -1.939,-0.065 -8.526,-0.789 -15.14,-8.275 -15.14,-17.052 V -111.921 H -91.196 V -6.772 c 0,0.696 0.047,1.382 0.13,2.059 -0.167,1.55 -0.25,3.117 -0.25,4.713 0,25.216 20.437,45.654 45.653,45.654 C -20.437,45.654 0,25.216 0,0" /></g><g
             id="g610"><g
               id="g612" /><g
               id="g624"><g
                 style="opacity:0.46000701"
                 id="g622"
                 clip-path="url(#clipPath616)"><g
                   id="g620"
                   transform="translate(44.4051,207.6435)"><path
                     inkscape:connector-curvature="0"
                     id="path618"
                     style="fill:#3a8bc5;fill-opacity:1;fill-rule:nonzero;stroke:none"
                     d="M 0,0 C -8.526,-0.789 -15.141,-8.275 -15.141,-17.052 V -130.04 h -12.46 V -22.488 C -27.601,-10.066 -17.534,0 -5.112,0 Z" /></g></g></g></g><g
             transform="translate(84.4061,93.873)"
             id="g626"><path
               inkscape:connector-curvature="0"
               id="path628"
               style="fill:#a3cbf0;fill-opacity:1;fill-rule:nonzero;stroke:none"
               d="m 0,0 c 1.398,1.429 2.696,2.852 3.769,4.657 1.012,1.703 1.793,3.607 2.351,5.589 1.118,3.972 1.298,8.357 0.444,12.427 -0.942,4.492 -3.486,7.916 -5.078,12.038 -0.812,2.104 -1.195,4.39 -0.602,6.648 0.552,2.103 1.689,3.899 2.53,5.835 0.782,1.804 1.324,3.762 1.014,5.815 -0.356,2.352 -1.721,4.19 -2.672,6.212 -2.079,4.419 -2.001,9.694 -1.317,14.56 0.344,2.443 0.836,4.85 1.352,7.246 0.115,0.536 -0.209,0.933 -0.626,0.99 -4.76,0.657 -9.52,1.314 -14.281,1.97 -0.631,0.087 -0.775,-0.795 -0.447,-1.273 -2.462,-2.505 -3.587,-6.266 -3.94,-10.091 -0.495,-5.375 0.698,-10.721 0.432,-16.101 -0.263,-5.286 -2.903,-9.892 -3.069,-15.174 -0.138,-4.422 1.786,-8.356 3.39,-12.165 0.82,-1.95 1.599,-3.95 1.967,-6.103 0.38,-2.215 0.176,-4.457 -0.501,-6.559 -1.376,-4.27 -4.191,-7.625 -6.3,-11.359 -5.053,-8.945 -5.437,-20.15 -4.668,-30.579 0.212,-2.878 0.479,-5.755 0.789,-8.62 0.234,-2.158 0.698,-4.331 2.264,-5.642 1.48,-1.238 3.386,-1.373 5.124,-1.52 2.461,-0.21 4.922,-0.416 7.383,-0.624 2.39,-0.202 4.787,-0.484 7.181,-0.592 1.887,-0.085 3.862,0.205 5.285,1.843 2.639,3.032 2.164,8.39 1.711,12.301 -0.608,5.262 -2.055,10.201 -4.078,14.904 -0.952,2.216 -2.046,4.599 -2.185,7.142 C -2.928,-3.488 -1.632,-1.668 0,0" /></g><g
             id="g630"><g
               id="g632" /><g
               id="g644"><g
                 id="g642"
                 clip-path="url(#clipPath636)"><g
                   id="g640"
                   transform="translate(72.7333,173.9805)"><path
                     inkscape:connector-curvature="0"
                     id="path638"
                     style="fill:#3a8bc5;fill-opacity:1;fill-rule:nonzero;stroke:none"
                     d="m 0,0 c -4.002,-5.052 -4.673,-12.765 -1.581,-18.687 0.443,-0.849 1.567,-0.065 1.121,0.791 -2.78,5.325 -2.233,12.23 1.378,16.79 C 1.495,-0.378 0.578,0.729 0,0" /></g></g></g></g><g
             id="g646"><g
               id="g648" /><g
               id="g660"><g
                 id="g658"
                 clip-path="url(#clipPath652)"><g
                   id="g656"
                   transform="translate(83.3475,146.623)"><path
                     inkscape:connector-curvature="0"
                     id="path654"
                     style="fill:#3a8bc5;fill-opacity:1;fill-rule:nonzero;stroke:none"
                     d="m 0,0 c -0.106,2.435 -0.589,4.789 -1.418,7.01 -0.973,2.602 -2.598,5.436 -1.827,8.405 0.25,0.963 -1.003,1.375 -1.252,0.416 -0.661,-2.547 0.138,-5.016 1.045,-7.312 0.942,-2.385 1.814,-4.685 2.072,-7.338 0.477,-4.911 -0.694,-10.018 -3.334,-13.827 -0.532,-0.767 0.382,-1.878 0.918,-1.105 C -1.149,-9.934 0.219,-4.971 0,0" /></g></g></g></g><g
             id="g662"><g
               id="g664" /><g
               id="g676"><g
                 id="g674"
                 clip-path="url(#clipPath668)"><g
                   id="g672"
                   transform="translate(76.3006,120.4277)"><path
                     inkscape:connector-curvature="0"
                     id="path670"
                     style="fill:#3a8bc5;fill-opacity:1;fill-rule:nonzero;stroke:none"
                     d="m 0,0 c -4.724,5.062 -6.148,13.311 -3.378,20.191 0.363,0.903 -0.756,1.696 -1.121,0.79 C -7.515,13.492 -6.097,4.443 -0.918,-1.105 -0.296,-1.772 0.626,-0.671 0,0" /></g></g></g></g><g
             id="g678"><g
               id="g680" /><g
               id="g692"><g
                 id="g690"
                 clip-path="url(#clipPath684)"><g
                   id="g688"
                   transform="translate(85.7206,120.4053)"><path
                     inkscape:connector-curvature="0"
                     id="path686"
                     style="fill:#3a8bc5;fill-opacity:1;fill-rule:nonzero;stroke:none"
                     d="m 0,0 c -0.188,0.98 -1.44,0.565 -1.252,-0.415 1.386,-7.214 -0.289,-15.047 -4.401,-20.553 -0.558,-0.746 0.357,-1.855 0.918,-1.105 C -0.303,-16.14 1.494,-7.777 0,0" /></g></g></g></g><g
             id="g694"><g
               id="g696" /><g
               id="g708"><g
                 id="g706"
                 clip-path="url(#clipPath700)"><g
                   id="g704"
                   transform="translate(68.4921,95.9463)"><path
                     inkscape:connector-curvature="0"
                     id="path702"
                     style="fill:#3a8bc5;fill-opacity:1;fill-rule:nonzero;stroke:none"
                     d="m 0,0 c -6.062,-10.507 -7.732,-24.345 -4.423,-36.499 0.26,-0.952 1.514,-0.545 1.252,0.416 -3.212,11.794 -1.588,25.102 4.292,35.294 C 1.599,0.039 0.474,0.821 0,0" /></g></g></g></g><g
             id="g710"><g
               id="g712" /><g
               id="g724"><g
                 id="g722"
                 clip-path="url(#clipPath716)"><g
                   id="g720"
                   transform="translate(74.8387,66.8349)"><path
                     inkscape:connector-curvature="0"
                     id="path718"
                     style="fill:#3a8bc5;fill-opacity:1;fill-rule:nonzero;stroke:none"
                     d="m 0,0 c -2.171,5.809 -2.676,12.391 -1.463,18.585 0.192,0.978 -1.059,1.396 -1.252,0.416 C -4.014,12.368 -3.442,5.421 -1.121,-0.789 -0.779,-1.705 0.34,-0.911 0,0" /></g></g></g></g><g
             id="g726"><g
               id="g728" /><g
               id="g740"><g
                 id="g738"
                 clip-path="url(#clipPath732)"><g
                   id="g736"
                   transform="translate(78.6512,78.6728)"><path
                     inkscape:connector-curvature="0"
                     id="path734"
                     style="fill:#3a8bc5;fill-opacity:1;fill-rule:nonzero;stroke:none"
                     d="m 0,0 c -0.359,0.908 -1.479,0.115 -1.121,-0.789 2.229,-5.629 4.837,-12.729 1.56,-18.567 -0.468,-0.836 0.656,-1.621 1.122,-0.79 C 5.119,-13.805 2.43,-6.136 0,0" /></g></g></g></g><g
             id="g742"><g
               id="g744" /><g
               id="g756"><g
                 id="g754"
                 clip-path="url(#clipPath748)"><g
                   id="g752"
                   transform="translate(76.7362,110.4355)"><path
                     inkscape:connector-curvature="0"
                     id="path750"
                     style="fill:#3a8bc5;fill-opacity:1;fill-rule:nonzero;stroke:none"
                     d="m 0,0 c -0.305,0.105 -0.748,-0.128 -0.799,-0.546 -0.474,-3.938 -1.395,-7.791 -2.768,-11.413 -0.345,-0.909 0.774,-1.704 1.121,-0.789 1.422,3.751 2.407,7.705 2.899,11.787 C 0.504,-0.54 0.366,-0.126 0,0" /></g></g></g></g><g
             id="g758"><g
               id="g760" /><g
               id="g772"><g
                 id="g770"
                 clip-path="url(#clipPath764)"><g
                   id="g768"
                   transform="translate(77.4784,150.584)"><path
                     inkscape:connector-curvature="0"
                     id="path766"
                     style="fill:#3a8bc5;fill-opacity:1;fill-rule:nonzero;stroke:none"
                     d="m 0,0 c -3.021,4.847 -3.843,11.29 -2.149,16.999 0.282,0.949 -0.973,1.358 -1.252,0.416 C -5.197,11.362 -4.326,4.354 -1.121,-0.789 -0.626,-1.584 0.502,-0.806 0,0" /></g></g></g></g><g
             id="g774"><g
               id="g776" /><g
               id="g788"><g
                 id="g786"
                 clip-path="url(#clipPath780)"><g
                   id="g784"
                   transform="translate(79.7811,127.1767)"><path
                     inkscape:connector-curvature="0"
                     id="path782"
                     style="fill:#3a8bc5;fill-opacity:1;fill-rule:nonzero;stroke:none"
                     d="m 0,0 c -0.184,0.981 -1.436,0.565 -1.252,-0.416 1.035,-5.542 1.164,-11.288 0.361,-16.887 -0.141,-0.984 1.11,-1.407 1.252,-0.416 C 1.205,-11.831 1.089,-5.831 0,0" /></g></g></g></g><g
             id="g790"><g
               id="g792" /><g
               id="g804"><g
                 id="g802"
                 clip-path="url(#clipPath796)"><g
                   id="g800"
                   transform="translate(69.2059,148.1064)"><path
                     inkscape:connector-curvature="0"
                     id="path798"
                     style="fill:#3a8bc5;fill-opacity:1;fill-rule:nonzero;stroke:none"
                     d="m 0,0 c -0.574,-3.056 -1.149,-6.11 -1.724,-9.166 -0.183,-0.98 1.068,-1.398 1.252,-0.416 0.575,3.056 1.15,6.111 1.724,9.166 C 1.437,0.563 0.185,0.982 0,0" /></g></g></g></g><g
             transform="translate(90.0135,172.1758)"
             id="g806"><path
               inkscape:connector-curvature="0"
               id="path808"
               style="fill:#68aee7;fill-opacity:1;fill-rule:nonzero;stroke:none"
               d="m 0,0 h -26.491 c -3.821,0 -6.917,3.097 -6.917,6.916 0,3.82 3.096,6.917 6.917,6.917 H 0 c 3.819,0 6.916,-3.097 6.916,-6.917 C 6.916,3.097 3.819,0 0,0" /></g><g
             transform="translate(190.4315,-0.0508)"
             id="g810"><path
               inkscape:connector-curvature="0"
               id="path812"
               style="fill:#ffffff;fill-opacity:1;fill-rule:nonzero;stroke:none"
               d="M 0,0 H -190.432 V 54.375 H 54.375 C 54.375,24.345 30.03,0 0,0" /></g><g
             id="g814"><g
               id="g816" /><g
               id="g828"><g
                 id="g826"
                 clip-path="url(#clipPath820)"><g
                   id="g824"
                   transform="translate(190.4315,-0.0508)"><path
                     inkscape:connector-curvature="0"
                     id="path822"
                     style="fill:#f3eee6;fill-opacity:1;fill-rule:nonzero;stroke:none"
                     d="M 0,0 H -190.432 V 54.375 H 54.375 C 54.375,24.345 30.03,0 0,0" /></g></g></g></g><g
             transform="translate(254.5155,54.3242)"
             id="g830"><path
               inkscape:connector-curvature="0"
               id="path832"
               style="fill:#ffffff;fill-opacity:1;fill-rule:nonzero;stroke:none"
               d="M 0,0 H -254.516 V 29.598 H 0 c 3.762,0 6.811,-3.05 6.811,-6.811 V 6.811 C 6.811,3.05 3.762,0 0,0" /></g><g
             id="g834"><g
               id="g836" /><g
               id="g848"><g
                 id="g846"
                 clip-path="url(#clipPath840)"><g
                   id="g844"
                   transform="translate(27.1981,66.2305)"><path
                     inkscape:connector-curvature="0"
                     id="path842"
                     style="fill:#f3eee6;fill-opacity:1;fill-rule:nonzero;stroke:none"
                     d="m 0,0 h 219.767 c 1.753,0 3.432,-1.541 3.351,-3.352 -0.081,-1.816 -1.472,-3.351 -3.351,-3.351 L 0,-6.703 c -1.754,0 -3.434,1.541 -3.353,3.351 C -3.271,-1.535 -1.88,0 0,0" /></g></g></g></g><g
             transform="translate(184.1571,10.8662)"
             id="g850"><path
               inkscape:connector-curvature="0"
               id="path852"
               style="fill:#ffffff;fill-opacity:1;fill-rule:nonzero;stroke:none"
               d="m 0,0 c 2.102,0.15 4.19,0.42 6.259,0.82 0.989,0.192 1.971,0.411 2.947,0.659 0.533,0.135 1.064,0.279 1.591,0.431 0.176,0.051 0.351,0.102 0.527,0.154 0.142,0.042 0.282,0.086 0.424,0.129 0.023,0.007 0.032,0.011 0.058,0.019 3.957,1.333 7.755,3.051 11.312,5.242 0.067,0.04 0.202,0.127 0.287,0.181 0.165,0.106 0.329,0.213 0.493,0.321 0.381,0.254 0.759,0.512 1.134,0.774 0.899,0.632 1.778,1.292 2.634,1.981 1.641,1.318 3.2,2.739 4.668,4.249 0.157,0.162 0.313,0.326 0.469,0.49 0.029,0.032 0.057,0.063 0.076,0.082 0.365,0.41 0.733,0.818 1.091,1.236 0.715,0.834 1.403,1.69 2.064,2.568 1.239,1.644 2.384,3.362 3.424,5.14 0.266,0.454 0.521,0.913 0.773,1.374 0.07,0.129 0.179,0.336 0.206,0.386 0.126,0.245 0.249,0.491 0.371,0.737 0.528,1.066 1.02,2.15 1.474,3.25 0.91,2.201 1.662,4.462 2.266,6.765 0.446,1.701 2.78,2.612 4.323,1.95 1.813,-0.78 2.427,-2.5 1.949,-4.323 C 46.254,17.196 32.903,2.62 15.938,-3.421 11.168,-5.119 6.23,-6.24 1.176,-6.602 -0.566,-6.727 -2.459,-5.812 -2.713,-3.889 -2.93,-2.244 -1.87,-0.134 0,0" /></g><g
             transform="translate(40.8202,100.7178)"
             id="g854"><path
               inkscape:connector-curvature="0"
               id="path856"
               style="fill:#a3cbf0;fill-opacity:1;fill-rule:nonzero;stroke:none"
               d="m 0,0 c 0,-7.228 -5.858,-13.086 -13.086,-13.086 -7.226,0 -13.086,5.858 -13.086,13.086 0,7.227 5.86,13.086 13.086,13.086 C -5.858,13.086 0,7.227 0,0" /></g><g
             transform="translate(37.6522,101.8555)"
             id="g858"><path
               inkscape:connector-curvature="0"
               id="path860"
               style="fill:#68aee7;fill-opacity:1;fill-rule:nonzero;stroke:none"
               d="m 0,0 c 0,-5.478 -4.44,-9.918 -9.918,-9.918 -5.478,0 -9.918,4.44 -9.918,9.918 0,5.478 4.44,9.918 9.918,9.918 C -4.44,9.918 0,5.478 0,0" /></g><path
             inkscape:connector-curvature="0"
             id="path862"
             style="fill:#a3cbf0;fill-opacity:1;fill-rule:nonzero;stroke:none"
             d="M 40.82,103.553 H 14.648 V 83.922 H 40.82 Z" /><g
             id="g864"><g
               id="g866" /><g
               id="g876"><g
                 style="opacity:0.36000103"
                 id="g874"
                 clip-path="url(#clipPath870)"><path
                   inkscape:connector-curvature="0"
                   id="path872"
                   style="fill:#a3cbf0;fill-opacity:1;fill-rule:nonzero;stroke:none"
                   d="M 34.144,103.553 H 21.324 V 83.922 h 12.82 z" /></g></g></g><g
             transform="translate(44.4325,96.6455)"
             id="g878"><path
               inkscape:connector-curvature="0"
               id="path880"
               style="fill:#68aee7;fill-opacity:1;fill-rule:nonzero;stroke:none"
               d="m 0,0 h -33.396 c -2.25,0 -4.073,1.823 -4.073,4.072 0,2.249 1.823,4.073 4.073,4.073 H 0 C 2.249,8.145 4.072,6.321 4.072,4.072 4.072,1.823 2.249,0 0,0" /></g><g
             transform="translate(48.5047,100.6777)"
             id="g882"><path
               inkscape:connector-curvature="0"
               id="path884"
               style="fill:#a3cbf0;fill-opacity:1;fill-rule:nonzero;stroke:none"
               d="m 0,0 c 0,-3.565 -2.891,-6.456 -6.456,-6.456 -3.565,0 -6.455,2.891 -6.455,6.456 0,3.565 2.89,6.456 6.455,6.456 C -2.891,6.456 0,3.565 0,0" /></g><g
             id="g886"><g
               id="g888" /><g
               id="g900"><g
                 id="g898"
                 clip-path="url(#clipPath892)"><g
                   id="g896"
                   transform="translate(48.5047,100.6689)"><path
                     inkscape:connector-curvature="0"
                     id="path894"
                     style="fill:#a3cbf0;fill-opacity:1;fill-rule:nonzero;stroke:none"
                     d="m 0,0 c 0,-3.565 -2.893,-6.447 -6.458,-6.447 -3.207,0 -5.879,2.335 -6.362,5.417 1.177,-1.241 2.84,-2.02 4.679,-2.02 3.566,0 6.448,2.892 6.448,6.457 0,0.359 -0.032,0.705 -0.084,1.042 C -0.673,3.292 0,1.725 0,0" /></g></g></g></g><g
             transform="translate(34.1903,100.6777)"
             id="g902"><path
               inkscape:connector-curvature="0"
               id="path904"
               style="fill:#a3cbf0;fill-opacity:1;fill-rule:nonzero;stroke:none"
               d="m 0,0 c 0,-3.565 -2.891,-6.456 -6.456,-6.456 -3.565,0 -6.455,2.891 -6.455,6.456 0,3.565 2.89,6.456 6.455,6.456 C -2.891,6.456 0,3.565 0,0" /></g><g
             id="g906"><g
               id="g908" /><g
               id="g920"><g
                 id="g918"
                 clip-path="url(#clipPath912)"><g
                   id="g916"
                   transform="translate(34.1444,100.6689)"><path
                     inkscape:connector-curvature="0"
                     id="path914"
                     style="fill:#a3cbf0;fill-opacity:1;fill-rule:nonzero;stroke:none"
                     d="m 0,0 c 0,-3.565 -2.893,-6.447 -6.457,-6.447 -3.208,0 -5.88,2.335 -6.363,5.417 1.177,-1.241 2.84,-2.02 4.68,-2.02 3.565,0 6.447,2.892 6.447,6.457 0,0.359 -0.032,0.705 -0.084,1.042 C -0.673,3.292 0,1.725 0,0" /></g></g></g></g><g
             transform="translate(19.8749,100.6777)"
             id="g922"><path
               inkscape:connector-curvature="0"
               id="path924"
               style="fill:#a3cbf0;fill-opacity:1;fill-rule:nonzero;stroke:none"
               d="m 0,0 c 0,-3.565 -2.89,-6.456 -6.455,-6.456 -3.566,0 -6.456,2.891 -6.456,6.456 0,3.565 2.89,6.456 6.456,6.456 C -2.89,6.456 0,3.565 0,0" /></g><g
             id="g926"><g
               id="g928" /><g
               id="g940"><g
                 id="g938"
                 clip-path="url(#clipPath932)"><g
                   id="g936"
                   transform="translate(19.8299,100.6689)"><path
                     inkscape:connector-curvature="0"
                     id="path934"
                     style="fill:#a3cbf0;fill-opacity:1;fill-rule:nonzero;stroke:none"
                     d="m 0,0 c 0,-3.565 -2.893,-6.447 -6.458,-6.447 -3.207,0 -5.879,2.335 -6.362,5.417 1.177,-1.241 2.84,-2.02 4.679,-2.02 3.566,0 6.448,2.892 6.448,6.457 0,0.359 -0.032,0.705 -0.084,1.042 C -0.674,3.292 0,1.725 0,0" /></g></g></g></g></g></g></g></g></svg>