<svg id="Capa_1" enable-background="new 0 0 512 512" height="512" viewBox="0 0 512 512" width="512" xmlns="http://www.w3.org/2000/svg"><g id="XMLID_1610_"><g id="XMLID_1732_"><path id="XMLID_1805_" d="m195.809 408h55.254v40h-55.254z" fill="#fff"/></g><g id="XMLID_1731_"><path id="XMLID_1803_" d="m386.919 448c0-62.465-23.162-119.521-61.365-163.047l37.365-41.474c58.145 49.069 95.076 122.482 95.076 204.521z" fill="#e7e9ef"/></g><g id="XMLID_1725_"><g id="XMLID_1730_"><path id="XMLID_1801_" d="m234.029 103.436h96v224h-96z" fill="#e7e9ef" transform="matrix(.866 .5 -.5 .866 145.503 -112.152)"/></g><g id="XMLID_1728_"><path id="XMLID_1729_" d="m322.029 73.657h56v48h-56z" fill="#a0c8ff" transform="matrix(.866 .5 -.5 .866 95.723 -161.931)"/></g><g id="XMLID_1726_"><path id="XMLID_1727_" d="m189.743 309.458h50.388v44.372h-50.388z" fill="#a0c8ff" transform="matrix(.866 .5 -.5 .866 194.618 -63.036)"/></g></g><g id="XMLID_1718_"><path id="XMLID_1719_" d="m502 502h-360.128c0-29.823 24.177-54 54-54h252.128c29.823 0 54 24.177 54 54z" fill="#a0c8ff"/></g><g id="XMLID_1691_"><circle id="XMLID_1692_" cx="322.029" cy="244.53" fill="#a0c8ff" r="40"/></g><g id="XMLID_1675_"><ellipse id="XMLID_1676_" cx="113.109" cy="113.891" fill="#ff9171" rx="68.416" ry="68.416" transform="matrix(.973 -.23 .23 .973 -23.141 29.034)"/></g><g id="XMLID_1733_"><path id="XMLID_1736_" d="m467.901 441.184c-1.911-78.435-36.754-152.097-96.346-203.449-1.711-12.533-8.078-23.598-17.302-31.394l34.006-58.9c2.762-4.783 1.122-10.899-3.66-13.66l-8.66-5 19-32.909c1.326-2.297 1.685-5.026.999-7.588s-2.362-4.746-4.659-6.072l-48.497-28c-4.782-2.761-10.899-1.123-13.66 3.66l-19 32.909-8.66-5c-2.296-1.325-5.024-1.684-7.588-.999-2.562.687-4.746 2.362-6.072 4.659l-112 193.99c-2.762 4.783-1.123 10.898 3.66 13.66l11.09 6.403-17.186 29.767c-2.762 4.783-1.123 10.898 3.66 13.66l43.637 25.194c1.534.886 3.26 1.34 5.001 1.34.866 0 1.736-.112 2.588-.341 2.561-.687 4.746-2.362 6.072-4.659l17.186-29.767 11.09 6.403c1.534.886 3.26 1.34 5 1.34.866 0 1.736-.112 2.588-.341 2.561-.687 4.746-2.362 6.072-4.659l28.794-49.872c4.865 1.762 10.082 2.777 15.51 2.935 34.208 40.283 53.921 90.768 56.138 143.507h-115.638v-20h26.938c5.523 0 10-4.478 10-10s-4.477-10-10-10h-129.13c-5.523 0-10 4.478-10 10s4.477 10 10 10h26.938v20.798c-30.525 4.842-53.938 31.336-53.938 63.202 0 5.522 4.477 10 10 10h135.064c5.523 0 10-4.478 10-10s-4.477-10-10-10h-123.918c4.54-19.461 22.031-34 42.854-34h252.128c20.823 0 38.315 14.539 42.854 34h-123.918c-5.523 0-10 4.478-10 10s4.477 10 10 10h135.064c5.523 0 10-4.478 10-10 0-28.344-18.526-52.427-44.099-60.817zm-145.872-166.654c-16.542 0-30-13.458-30-30.001 0-16.542 13.458-30 30-30s30 13.458 30 30c0 16.543-13.458 30.001-30 30.001zm19.412-197.998 31.177 18-14 24.249-31.177-18zm-119.439 273.263-26.317-15.194 12.186-21.106 26.317 15.194zm41.937-27.024-65.818-38 102-176.669 65.818 38-29.232 50.631c-4.643-1.429-9.572-2.202-14.678-2.202-27.57 0-50 22.43-50 50 0 14.43 6.152 27.445 15.962 36.58zm78.768-32.735c11.947-5.451 21.387-15.463 26.075-27.805 48.128 46.183 76.42 108.989 78.996 175.769h-51.066c-2.088-53.842-20.993-105.556-54.005-147.964zm-136.897 147.964v-20h35.254v20z"/><path id="XMLID_1743_" d="m322.03 234.53c-2.63 0-5.21 1.07-7.07 2.93s-2.93 4.44-2.93 7.07 1.07 5.21 2.93 7.07 4.44 2.93 7.07 2.93 5.21-1.07 7.07-2.93 2.93-4.44 2.93-7.07-1.07-5.21-2.93-7.07-4.44-2.93-7.07-2.93z"/><path id="XMLID_1747_" d="m160.997 175.922 11.303 11.303c1.953 1.953 4.512 2.929 7.071 2.929s5.119-.976 7.071-2.929c3.905-3.905 3.905-10.237 0-14.143l-11.303-11.303c8.329-10.764 13.916-23.74 15.726-37.888h26.135c5.523 0 10-4.477 10-10s-4.477-10-10-10h-26.135c-1.81-14.148-7.397-27.124-15.726-37.888l35.563-35.563c3.905-3.905 3.905-10.237 0-14.142s-10.237-3.905-14.143 0l-35.563 35.563c-10.764-8.329-23.74-13.916-37.888-15.726v-26.135c0-5.523-4.477-10-10-10s-10 4.477-10 10v26.135c-14.148 1.81-27.124 7.396-37.888 15.726l-13.456-13.457c-3.905-3.905-10.237-3.905-14.143 0-3.905 3.905-3.905 10.237 0 14.143l13.457 13.457c-8.329 10.764-13.916 23.74-15.726 37.888h-25.352c-5.523 0-10 4.477-10 10s4.477 10 10 10h25.352c1.81 14.148 7.396 27.124 15.725 37.888l-19.538 19.539c-3.905 3.905-3.905 10.237 0 14.143 1.953 1.953 4.512 2.929 7.071 2.929s5.119-.976 7.071-2.929l19.539-19.539c10.764 8.329 23.74 13.916 37.888 15.726v29.351c0 5.523 4.477 10 10 10s10-4.477 10-10v-29.352c14.149-1.81 27.125-7.397 37.889-15.726zm-106.305-62.03c0-32.211 26.205-58.417 58.416-58.417s58.417 26.206 58.417 58.417-26.206 58.416-58.417 58.416-58.416-26.206-58.416-58.416z"/><path id="XMLID_1748_" d="m105.34 80.89c-2.63 0-5.21 1.07-7.07 2.93s-2.93 4.44-2.93 7.07c0 2.64 1.07 5.21 2.93 7.07s4.44 2.93 7.07 2.93 5.21-1.07 7.07-2.93 2.93-4.44 2.93-7.07-1.07-5.21-2.93-7.07-4.44-2.93-7.07-2.93z"/><path id="XMLID_1749_" d="m138.84 107.39c-2.64 0-5.21 1.07-7.07 2.93s-2.93 4.44-2.93 7.07 1.07 5.21 2.93 7.07 4.44 2.93 7.07 2.93 5.21-1.07 7.07-2.93 2.93-4.44 2.93-7.07-1.07-5.21-2.93-7.07-4.44-2.93-7.07-2.93z"/><path id="XMLID_1750_" d="m97.84 125.89c-2.63 0-5.21 1.07-7.07 2.93-1.87 1.86-2.93 4.44-2.93 7.07s1.06 5.21 2.93 7.07c1.86 1.86 4.44 2.93 7.07 2.93s5.21-1.07 7.07-2.93 2.93-4.44 2.93-7.07-1.07-5.21-2.93-7.07-4.44-2.93-7.07-2.93z"/><path id="XMLID_1752_" d="m321.94 492c-2.64 0-5.21 1.069-7.07 2.93-1.87 1.86-2.93 4.44-2.93 7.07s1.06 5.21 2.93 7.069c1.86 1.86 4.43 2.931 7.07 2.931 2.63 0 5.21-1.07 7.07-2.931 1.86-1.859 2.93-4.439 2.93-7.069s-1.07-5.21-2.93-7.07c-1.86-1.861-4.44-2.93-7.07-2.93z"/></g></g></svg>